<svg id="svg" version="1.1" xmlns="http://www.w3.org/2000/svg" style="display: block;" viewBox="0 0 388 345"><path d="M0 0 C128.04 0 256.08 0 388 0 C388 113.85 388 227.7 388 345 C259.96 345 131.92 345 0 345 C0 231.15 0 117.3 0 0 Z " transform="translate(0,0)" style="fill: #FEFEFE;"/><path d="M0 0 C5.05262034 1.62476419 8.90822251 4.63404647 13.125 7.75 C13.91197266 8.32492188 14.69894531 8.89984375 15.50976562 9.4921875 C18.01101398 11.32207941 20.50618296 13.15999631 23 15 C24.59114381 16.17187774 26.18228962 17.34375278 27.7734375 18.515625 C30.14605998 20.26414408 32.51813257 22.01339235 34.88891602 23.7644043 C43.21239256 29.90810501 51.60320525 35.95710303 60 42 C70.9621679 49.88911164 81.87651312 57.8378117 92.7421875 65.859375 C105.24778263 75.09008443 117.8775019 84.15357108 130.4921875 93.234375 C139.02055785 99.37772438 147.50337605 105.5774479 155.95141602 111.83081055 C161.20909187 115.71117981 166.52078683 119.50423172 171.875 123.25 C176.90187587 126.76765883 181.84759724 130.35388751 186.6875 134.125 C192.08521021 138.32693035 197.59168686 142.32874512 203.171875 146.28125 C208.37334253 149.96585266 213.53170173 153.71018589 218.69604492 157.4465332 C220.12057462 158.47675487 221.54591919 159.50585096 222.97216797 160.53369141 C224.31404564 161.50399207 225.65170234 162.48015953 226.98486328 163.46240234 C229.64236175 165.40519742 231.85566275 166.95188758 235 168 C234.43047364 172.07430399 233.14577155 174.71375126 230.875 178.125 C230.23820312 179.09566406 229.60140625 180.06632813 228.9453125 181.06640625 C228.30335938 182.03449219 227.66140625 183.00257813 227 184 C222.83879309 190.44091117 218.79801661 196.94950522 214.8125 203.5 C210.37659372 210.79025527 205.85164058 218.01967352 201.28173828 225.2265625 C197.73851312 230.8178344 194.25495077 236.44155763 190.796875 242.0859375 C188.48005619 245.84321322 186.114426 249.56769126 183.734375 253.28515625 C182.50801563 255.20479536 181.29007259 257.1298235 180.078125 259.05859375 C179.45421875 260.04988281 178.8303125 261.04117187 178.1875 262.0625 C177.62417969 262.96097656 177.06085938 263.85945313 176.48046875 264.78515625 C175 267 175 267 173 269 C171.18065584 269.24839699 171.18065584 269.24839699 168.92764854 269.24609566 C168.07023453 269.25007775 167.21282052 269.25405985 166.32942426 269.25816262 C165.38196761 269.25233693 164.43451096 269.24651125 163.45834351 269.24050903 C161.95507474 269.24307231 161.95507474 269.24307231 160.42143691 269.24568737 C157.0417916 269.24899841 153.66234205 269.23795204 150.28271484 269.22705078 C147.86865748 269.22648702 145.45459977 269.22680255 143.0405426 269.22793579 C137.83218852 269.22839217 132.62387922 269.22269593 127.41553879 269.21146011 C119.88510089 269.19522544 112.35468723 269.1899992 104.82423373 269.18748413 C92.60741814 269.18310383 80.39062922 269.16978565 68.17382812 269.15087891 C56.30436334 269.13252877 44.43490579 269.11836803 32.56542969 269.10986328 C31.83414122 269.10933783 31.10285275 269.10881239 30.34940402 269.10827102 C26.68084788 269.105661 23.01229169 269.10313357 19.34373546 269.10064721 C-11.10419546 269.07990427 -41.55209403 269.04452126 -72 269 C-71.85064319 267.56912293 -71.6985316 266.13853325 -71.54527283 264.70806885 C-71.4608641 263.91137913 -71.37645536 263.11468941 -71.28948879 262.29385757 C-70.91423948 259.32044894 -70.2288972 256.49937691 -69.44140625 253.609375 C-68.98604492 251.92714844 -68.98604492 251.92714844 -68.52148438 250.2109375 C-68.20501953 249.06882812 -67.88855469 247.92671875 -67.5625 246.75 C-67.24990234 245.59242188 -66.93730469 244.43484375 -66.61523438 243.2421875 C-65.28521555 238.37201286 -63.90678055 233.67716119 -62 229 C-61.69020097 227.59134117 -61.42046398 226.17338432 -61.1875 224.75 C-59.57510309 216.24712568 -56.8174076 208.00545926 -54.31347656 199.73144531 C-52.07863051 192.32791658 -49.88657953 185.0113842 -48.52734375 177.38671875 C-47.66156223 173.46825571 -46.25543707 169.73614889 -44.94140625 165.94921875 C-43.82249707 162.44392236 -43.14492324 158.95422964 -42.48828125 155.33984375 C-42.01982105 153.09498246 -41.3885877 151.03509568 -40.625 148.875 C-39.03210235 144.31710475 -37.90218643 139.6880967 -36.7644043 134.99853516 C-34.87722129 127.32545046 -32.71377691 119.73171164 -30.54980469 112.1328125 C-28.83289133 106.0781282 -27.23273055 100.00818918 -25.72583008 93.89794922 C-24.59708931 89.39133877 -23.36178673 84.91543554 -22.125 80.4375 C-19.92915453 72.45154591 -17.78295283 64.45519222 -15.73681641 56.42944336 C-14.75911682 52.65181298 -13.67291934 48.95220924 -12.4140625 45.2578125 C-11.38754493 42.24211174 -10.5680641 39.34017498 -10.0625 36.1875 C-9.15269799 31.25622018 -7.58266212 26.67918494 -5.94140625 21.94921875 C-4.82895016 18.46413848 -4.15060325 14.99704687 -3.50390625 11.40234375 C-2.68286897 7.48809624 -1.36058117 3.75520403 0 0 Z " transform="translate(102,44)" style="fill: #F9F9F9;"/><path d="M0 0 C8.85276792 1.7382147 16.83020103 8.8438467 24 14 C21.33387356 18.74289861 18.09374201 22.98775346 14.8125 27.3125 C13.97428711 28.42334961 13.97428711 28.42334961 13.11914062 29.55664062 C11.74826754 31.37275454 10.37517323 33.18714134 9 35 C11.16635874 34.13895422 11.16635874 34.13895422 12.25 31.9375 C14 30 14 30 17.1875 29.75 C18.115625 29.8325 19.04375 29.915 20 30 C20 31.98 20 33.96 20 36 C20.99 35.67 21.98 35.34 23 35 C23.04898438 33.80761719 23.09796875 32.61523438 23.1484375 31.38671875 C23.22347604 29.82028932 23.2990234 28.25388421 23.375 26.6875 C23.42140625 25.50897461 23.42140625 25.50897461 23.46875 24.30664062 C23.50742188 23.54931641 23.54609375 22.79199219 23.5859375 22.01171875 C23.6173584 21.31522217 23.6487793 20.61872559 23.68115234 19.90112305 C24 18 24 18 26 15 C29.53717226 16.53698557 32.35964337 18.16085204 35 21 C36.26951822 26.05883775 36.40881256 31.38010295 33.88671875 36.0703125 C32.5625 37.625 32.5625 37.625 30 40 C29.67 40.99 29.34 41.98 29 43 C29.66 43 30.32 43 31 43 C31.268125 42.236875 31.53625 41.47375 31.8125 40.6875 C32.94424112 38.12619116 33.91223401 36.80307062 36 35 C39.48670834 36.1094072 42.77484237 37.26337666 46 39 C45.38125 38.54625 44.7625 38.0925 44.125 37.625 C42 36 42 36 40 34 C43.3 34 46.6 34 50 34 C50 33.34 50 32.68 50 32 C45.71 32.33 41.42 32.66 37 33 C37 29.7 37 26.4 37 23 C41.73237884 24.623316 45.60972913 27.1976985 49.75 29.9375 C51.28640222 30.9427941 52.82286205 31.94800015 54.359375 32.953125 C55.13732422 33.46423828 55.91527344 33.97535156 56.71679688 34.50195312 C60.13524488 36.74485272 63.56688994 38.96713252 67 41.1875 C67.68400879 41.63053467 68.36801758 42.07356934 69.07275391 42.5300293 C74.34885391 45.94352231 79.64140729 49.3308671 84.93725586 52.71362305 C94.62477277 58.90214863 104.29829865 65.1114241 113.9375 71.375 C114.92057129 72.01147461 115.90364258 72.64794922 116.91650391 73.30371094 C118.27074463 74.18591309 118.27074463 74.18591309 119.65234375 75.0859375 C120.44632568 75.6020459 121.24030762 76.1181543 122.05834961 76.64990234 C124 78 124 78 126 80 C124.68 80.33 123.36 80.66 122 81 C122 81.99 122 82.98 122 84 C122.886875 84.28875 123.77375 84.5775 124.6875 84.875 C127.50382424 85.83148748 130.25083156 86.86798946 133 88 C133 87.01 133 86.02 133 85 C137.07648125 86.47961171 140.57310911 88.45860423 144.25 90.75 C144.81485107 91.10126953 145.37970215 91.45253906 145.96166992 91.81445312 C150.70621793 94.77971154 155.37831324 97.84722144 160 101 C159.34 101.66 158.68 102.32 158 103 C159.45264038 103.8638129 160.9123163 104.71580454 162.375 105.5625 C163.18710938 106.03816406 163.99921875 106.51382813 164.8359375 107.00390625 C165.55007812 107.33261719 166.26421875 107.66132813 167 108 C167.66 107.67 168.32 107.34 169 107 C171.5625 108.25 171.5625 108.25 174 110 C174.33 110.99 174.66 111.98 175 113 C178.70020307 115.41645915 182.20493236 117.12739564 186.375 118.5625 C187.57125 119.036875 188.7675 119.51125 190 120 C190.33 120.99 190.66 121.98 191 123 C193.18137797 124.02450239 193.18137797 124.02450239 196 125 C198.68889473 126.28967358 201.34468871 127.64269448 204 129 C204 129.33 204 129.66 204 130 C125.46 130 46.92 130 -34 130 C-33.32110805 123.88997246 -32.82700839 120.12482056 -30.87890625 114.67578125 C-29.79140478 111.36494345 -28.95137288 108.00793822 -28.125 104.625 C-26.05888078 96.18884558 -23.85626691 87.79273512 -21.63232422 79.39697266 C-21.02173593 77.08239514 -20.41780934 74.76619802 -19.81640625 72.44921875 C-17.16512711 62.25703318 -14.37715109 52.10851029 -11.49853516 41.97802734 C-9.79923695 35.97045673 -8.21029768 29.94688187 -6.71435547 23.88549805 C-5.63828018 19.53890414 -4.51041715 15.20640616 -3.375 10.875 C-3.1584375 10.0396875 -2.941875 9.204375 -2.71875 8.34375 C-2.50992188 7.54710937 -2.30109375 6.75046875 -2.0859375 5.9296875 C-1.9007959 5.22054199 -1.7156543 4.51139648 -1.52490234 3.78076172 C-1 2 -1 2 0 0 Z " transform="translate(67,181)" style="fill: #FCFCFC;"/><path d="M0 0 C5.57454714 2.91396782 10.42237573 6.49853605 15.421875 10.3046875 C19.58444928 13.46110811 23.82297048 16.51065412 28.0625 19.5625 C28.84536377 20.12638428 29.62822754 20.69026855 30.43481445 21.27124023 C31.95138106 22.3634428 33.46805941 23.45549024 34.98486328 24.54736328 C37.49553756 26.3572145 39.99879567 28.17708837 42.5 30 C45.78927374 32.39683513 49.0851828 34.78416166 52.38671875 37.1640625 C53.57201172 38.01871094 53.57201172 38.01871094 54.78125 38.890625 C56.33936663 40.01368309 57.89793162 41.13611948 59.45703125 42.2578125 C63.71969056 45.33054218 67.94209182 48.44954996 72.1394043 51.61083984 C74.83106608 53.62049153 77.57018372 55.56022958 80.3125 57.5 C86.30696919 61.76327523 92.25671285 66.08611644 98.1875 70.4375 C99.01354736 71.04078125 99.83959473 71.6440625 100.69067383 72.265625 C101.46693115 72.83667969 102.24318848 73.40773438 103.04296875 73.99609375 C103.73414795 74.50325928 104.42532715 75.0104248 105.13745117 75.53295898 C106.89872141 76.92022768 108.45340841 78.37986167 110 80 C107.36 80 104.72 80 102 80 C102 80.66 102 81.32 102 82 C105.3 82 108.6 82 112 82 C108.1445874 89.26973619 104.03286314 96.28092425 99.5625 103.1875 C98.33116328 105.10621409 97.10072746 107.02550657 95.87109375 108.9453125 C94.92145752 110.42692871 94.92145752 110.42692871 93.95263672 111.93847656 C90.64403377 117.12600856 87.38314128 122.34317527 84.125 127.5625 C83.48578613 128.58609619 82.84657227 129.60969238 82.18798828 130.66430664 C79.08480953 135.63939241 75.99635673 140.62256265 72.9375 145.625 C69.20893492 151.69321899 65.42477365 157.72614393 61.625 163.75 C61.00488037 164.74080566 60.38476074 165.73161133 59.74584961 166.75244141 C59.16198486 167.67460449 58.57812012 168.59676758 57.9765625 169.546875 C57.45143066 170.38057617 56.92629883 171.21427734 56.38525391 172.07324219 C55 174 55 174 53 175 C50.64937056 169.53421601 48.73127105 164.29909557 47.58837891 158.45922852 C46.96789778 155.8658234 46.11109617 153.48521263 45.15625 150.99609375 C42.52854966 143.89027502 40.60901378 136.62715173 38.64453125 129.31640625 C36.9802884 123.22422314 35.11044338 117.30485032 32.84960938 111.40625 C32.03931685 109.11135255 31.47359066 106.88451637 31 104.5 C30.29722704 100.96714134 29.21747975 97.74240191 27.9375 94.375 C26.35353988 90.1883991 25.39561629 86.45068327 25 82 C27.97 82 30.94 82 34 82 C34 81.34 34 80.68 34 80 C30.7 80 27.4 80 24 80 C22.04491791 75.90363752 20.6797841 71.98053854 19.625 67.5625 C18.00940863 60.83636452 15.94671694 54.28085229 13.85107422 47.69335938 C12.2241976 42.54485023 10.6301093 37.38608747 9.03155518 32.22872925 C8.4542771 30.36661747 7.87631864 28.50471667 7.29833984 26.64282227 C6.56185706 24.26965732 5.82680407 21.89604813 5.09326172 19.52197266 C4.34712766 17.11828128 3.59320275 14.71699788 2.83251953 12.31787109 C2.46626465 11.15465332 2.10000977 9.99143555 1.72265625 8.79296875 C1.39144775 7.75035889 1.06023926 6.70774902 0.71899414 5.63354492 C0 3 0 3 0 0 Z " transform="translate(222,133)" style="fill: #FBFBFB;"/><path d="M0 0 C2.74853212 1.29655571 5.12628124 2.72995115 7.5390625 4.57421875 C8.19624268 5.0729248 8.85342285 5.57163086 9.53051758 6.08544922 C10.22169678 6.61412598 10.91287598 7.14280273 11.625 7.6875 C18.14552682 12.63158303 18.14552682 12.63158303 24.8125 17.375 C29.70380673 20.74859941 34.47343986 24.27946119 39.25 27.8125 C44.80287579 31.91916301 50.36595504 36.00531491 56 40 C62.28253163 44.45690185 68.47946694 49.02561728 74.67382812 53.60400391 C79.49368285 57.16285012 84.32717379 60.70117176 89.1875 64.20458984 C90.71767357 65.30989469 92.24379941 66.42082694 93.765625 67.53759766 C96.9086621 69.83524197 99.990881 71.99468765 103.359375 73.95703125 C112.1347313 79.21038644 113.90429939 86.21976616 116.37792969 95.64501953 C117.14670969 98.55540098 118.01203628 101.43139465 118.88134766 104.31298828 C119.50719848 106.39899306 120.11529543 108.48944537 120.71875 110.58203125 C122.11629079 115.41774075 123.55403147 120.24107575 125 125.0625 C125.25394531 125.90925293 125.50789063 126.75600586 125.76953125 127.62841797 C127.31424838 132.76262201 128.89105969 137.88559069 130.5 143 C134.84889239 156.84178469 138.9384624 170.75803611 142.96844482 184.69552612 C145.80453462 194.50382782 148.65044451 204.30208972 151.75 214.03125 C152.78002205 217.27238604 153.7681513 220.52520473 154.75 223.78125 C155.0598584 224.80798828 155.3697168 225.83472656 155.68896484 226.89257812 C156.29554176 228.90627425 156.90015812 230.92056239 157.50244141 232.93554688 C158.78257062 237.17859737 160.10014213 241.36531884 161.69921875 245.5 C162.87784376 248.67131534 163.31173774 250.67479749 163 254 C159.43987464 249.81064318 156.68082862 245.32902139 153.875 240.625 C150.39079203 234.85101975 146.84019689 229.14911634 143.0625 223.5625 C138.75558796 217.18851084 134.63046304 210.71219037 130.53808594 204.19873047 C125.86323039 196.76364109 121.09509593 189.3914424 116.3125 182.02539062 C114.13708355 178.66838638 111.97436853 175.30323935 109.8125 171.9375 C109.42553955 171.33510498 109.0385791 170.73270996 108.63989258 170.11206055 C107.7597114 168.74151302 106.87981915 167.37077996 106 166 C106.99 165.67 107.98 165.34 109 165 C109 164.34 109 163.68 109 163 C108.24243408 163.09055664 107.48486816 163.18111328 106.7043457 163.27441406 C104 163 104 163 102.27416992 161.17089844 C101.76474854 160.3255957 101.25532715 159.48029297 100.73046875 158.609375 C100.15506348 157.67722168 99.5796582 156.74506836 98.98681641 155.78466797 C98.39304199 154.78322754 97.79926758 153.78178711 97.1875 152.75 C95.95041694 150.72582973 94.71214327 148.70238661 93.47265625 146.6796875 C92.87855957 145.69967773 92.28446289 144.71966797 91.67236328 143.70996094 C89.03416789 139.43492898 86.16358259 135.33944491 83.2578125 131.2421875 C82 129 82 129 82 125 C80.37046767 123.62152985 78.69768677 122.2936055 77 121 C75.05541992 118.46630859 75.05541992 118.46630859 73.23046875 115.6484375 C72.23950195 114.12476563 72.23950195 114.12476563 71.22851562 112.5703125 C70.55498047 111.51585937 69.88144531 110.46140625 69.1875 109.375 C68.49462891 108.3128125 67.80175781 107.250625 67.08789062 106.15625 C62 98.27628541 62 98.27628541 62 96 C62.66 95.67 63.32 95.34 64 95 C63.24025879 94.76095947 62.48051758 94.52191895 61.69775391 94.27563477 C58.533027 92.7791915 57.64245138 91.54835901 55.8359375 88.58984375 C54.99736206 87.24152466 54.99736206 87.24152466 54.1418457 85.8659668 C53.55878662 84.89957275 52.97572754 83.93317871 52.375 82.9375 C51.12691808 80.92149351 49.87821378 78.90587221 48.62890625 76.890625 C48.01418457 75.88966797 47.39946289 74.88871094 46.76611328 73.85742188 C44.33852769 69.92979376 41.83394476 66.05528027 39.3125 62.1875 C38.42819361 60.82434316 37.5440781 59.46106247 36.66015625 58.09765625 C36.22590332 57.42879395 35.79165039 56.75993164 35.34423828 56.07080078 C32.97688457 52.42388938 30.61302885 48.77471481 28.25 45.125 C27.78424561 44.40570313 27.31849121 43.68640625 26.83862305 42.9453125 C24.41762863 39.20294723 22.00998904 35.452963 19.625 31.6875 C16.19993671 26.29093687 12.72732027 20.92547665 9.25 15.5625 C8.6823291 14.68489014 8.1146582 13.80728027 7.52978516 12.90307617 C6.9888623 12.0701001 6.44793945 11.23712402 5.890625 10.37890625 C5.40625977 9.6319751 4.92189453 8.88504395 4.42285156 8.11547852 C3.00804749 5.95743035 3.00804749 5.95743035 1.31933594 3.85131836 C0 2 0 2 0 0 Z " transform="translate(108,50)" style="fill: #FAFAFA;"/><path d="M0 0 C5.05262034 1.62476419 8.90822251 4.63404647 13.125 7.75 C13.91197266 8.32492188 14.69894531 8.89984375 15.50976562 9.4921875 C18.01101398 11.32207941 20.50618296 13.15999631 23 15 C24.59114381 16.17187774 26.18228962 17.34375278 27.7734375 18.515625 C30.14605998 20.26414408 32.51813257 22.01339235 34.88891602 23.7644043 C43.21239256 29.90810501 51.60320525 35.95710303 60 42 C70.9621679 49.88911164 81.87651312 57.8378117 92.7421875 65.859375 C105.24778263 75.09008443 117.8775019 84.15357108 130.4921875 93.234375 C139.02055785 99.37772438 147.50337605 105.5774479 155.95141602 111.83081055 C161.20909187 115.71117981 166.52078683 119.50423172 171.875 123.25 C176.90187587 126.76765883 181.84759724 130.35388751 186.6875 134.125 C192.08521021 138.32693035 197.59168686 142.32874512 203.171875 146.28125 C208.37334253 149.96585266 213.53170173 153.71018589 218.69604492 157.4465332 C220.12057462 158.47675487 221.54591919 159.50585096 222.97216797 160.53369141 C224.31404564 161.50399207 225.65170234 162.48015953 226.98486328 163.46240234 C229.64236175 165.40519742 231.85566275 166.95188758 235 168 C234.43047364 172.07430399 233.14577155 174.71375126 230.875 178.125 C230.23820312 179.09566406 229.60140625 180.06632813 228.9453125 181.06640625 C228.30335938 182.03449219 227.66140625 183.00257813 227 184 C222.83879309 190.44091117 218.79801661 196.94950522 214.8125 203.5 C210.37659372 210.79025527 205.85164058 218.01967352 201.28173828 225.2265625 C197.73851312 230.8178344 194.25495077 236.44155763 190.796875 242.0859375 C188.48005619 245.84321322 186.114426 249.56769126 183.734375 253.28515625 C182.50801563 255.20479536 181.29007259 257.1298235 180.078125 259.05859375 C179.45421875 260.04988281 178.8303125 261.04117187 178.1875 262.0625 C177.62417969 262.96097656 177.06085938 263.85945313 176.48046875 264.78515625 C175 267 175 267 173 269 C171.18065584 269.24839699 171.18065584 269.24839699 168.92764854 269.24609566 C168.07023453 269.25007775 167.21282052 269.25405985 166.32942426 269.25816262 C165.38196761 269.25233693 164.43451096 269.24651125 163.45834351 269.24050903 C161.95507474 269.24307231 161.95507474 269.24307231 160.42143691 269.24568737 C157.0417916 269.24899841 153.66234205 269.23795204 150.28271484 269.22705078 C147.86865748 269.22648702 145.45459977 269.22680255 143.0405426 269.22793579 C137.83218852 269.22839217 132.62387922 269.22269593 127.41553879 269.21146011 C119.88510089 269.19522544 112.35468723 269.1899992 104.82423373 269.18748413 C92.60741814 269.18310383 80.39062922 269.16978565 68.17382812 269.15087891 C56.30436334 269.13252877 44.43490579 269.11836803 32.56542969 269.10986328 C31.83414122 269.10933783 31.10285275 269.10881239 30.34940402 269.10827102 C26.68084788 269.105661 23.01229169 269.10313357 19.34373546 269.10064721 C-11.10419546 269.07990427 -41.55209403 269.04452126 -72 269 C-71.85064319 267.56912293 -71.6985316 266.13853325 -71.54527283 264.70806885 C-71.4608641 263.91137913 -71.37645536 263.11468941 -71.28948879 262.29385757 C-70.91423948 259.32044894 -70.2288972 256.49937691 -69.44140625 253.609375 C-68.98604492 251.92714844 -68.98604492 251.92714844 -68.52148438 250.2109375 C-68.20501953 249.06882812 -67.88855469 247.92671875 -67.5625 246.75 C-67.24990234 245.59242188 -66.93730469 244.43484375 -66.61523438 243.2421875 C-65.28521555 238.37201286 -63.90678055 233.67716119 -62 229 C-61.69020097 227.59134117 -61.42046398 226.17338432 -61.1875 224.75 C-59.57510309 216.24712568 -56.8174076 208.00545926 -54.31347656 199.73144531 C-52.07863051 192.32791658 -49.88657953 185.0113842 -48.52734375 177.38671875 C-47.66156223 173.46825571 -46.25543707 169.73614889 -44.94140625 165.94921875 C-43.82249707 162.44392236 -43.14492324 158.95422964 -42.48828125 155.33984375 C-42.01982105 153.09498246 -41.3885877 151.03509568 -40.625 148.875 C-39.03210235 144.31710475 -37.90218643 139.6880967 -36.7644043 134.99853516 C-34.87722129 127.32545046 -32.71377691 119.73171164 -30.54980469 112.1328125 C-28.83289133 106.0781282 -27.23273055 100.00818918 -25.72583008 93.89794922 C-24.59708931 89.39133877 -23.36178673 84.91543554 -22.125 80.4375 C-19.92915453 72.45154591 -17.78295283 64.45519222 -15.73681641 56.42944336 C-14.75911682 52.65181298 -13.67291934 48.95220924 -12.4140625 45.2578125 C-11.38754493 42.24211174 -10.5680641 39.34017498 -10.0625 36.1875 C-9.15269799 31.25622018 -7.58266212 26.67918494 -5.94140625 21.94921875 C-4.82895016 18.46413848 -4.15060325 14.99704687 -3.50390625 11.40234375 C-2.68286897 7.48809624 -1.36058117 3.75520403 0 0 Z M2 5 C2 7.31 2 9.62 2 12 C1.01 11.67 0.02 11.34 -1 11 C-1.33 13.97 -1.66 16.94 -2 20 C-0.68 20 0.64 20 2 20 C2 23.96 2 27.92 2 32 C1.01 32 0.02 32 -1 32 C-1 28.37 -1 24.74 -1 21 C-4.76324567 23.50883045 -5.24293774 25.99165908 -6.4375 30.125 C-6.6535791 30.84437744 -6.8696582 31.56375488 -7.09228516 32.30493164 C-8.66419013 37.62214674 -10.04013346 42.98057617 -11.34179688 48.37036133 C-12.89089056 54.72696097 -14.65794671 61.01704013 -16.4375 67.3125 C-18.7595774 75.52912882 -21.0146813 83.75574371 -23.14941406 92.02294922 C-24.47207203 97.1054858 -25.90503424 102.14801931 -27.38208008 107.18774414 C-29.79484988 115.42509674 -31.97400231 123.45591578 -33 132 C-28.545 131.01 -28.545 131.01 -24 130 C-24 130.66 -24 131.32 -24 132 C-24.763125 132.12375 -25.52625 132.2475 -26.3125 132.375 C-29.20267136 132.88102792 -29.20267136 132.88102792 -32 135 C-26.1279109 139.39848499 -20.24220506 143.55459071 -13.90625 147.25390625 C-10.91175579 149.05301769 -7.98010445 150.9288317 -5.05224609 152.83374023 C-3.59463433 153.7818907 -2.13398274 154.7253835 -0.67041016 155.66430664 C3.00801979 158.0273972 6.63385639 160.43228196 10.1953125 162.96875 C17.9157985 168.33639622 22.94896359 171.25394074 32.71875 169.5703125 C33.4715625 169.38210937 34.224375 169.19390625 35 169 C35 169.66 35 170.32 35 171 C31.37 171 27.74 171 24 171 C27.75629353 174.1396944 31.70396821 176.76982287 35.875 179.3125 C42.75897321 183.55990255 49.54737749 187.94102994 56.3125 192.375 C65.66226355 198.49640419 75.07767878 204.50158554 84.53857422 210.44921875 C97.74138389 218.76743409 110.88086169 227.18443988 123.96875 235.68212891 C126.01957356 237.01269929 128.07198976 238.3407751 130.125 239.66796875 C130.81456787 240.11382324 131.50413574 240.55967773 132.21459961 241.01904297 C133.60577424 241.91821484 134.99721033 242.81698233 136.38891602 243.71533203 C140.38403151 246.29696155 144.36691232 248.89605736 148.33984375 251.51171875 C149.23985107 252.10227051 150.1398584 252.69282227 151.06713867 253.30126953 C152.818406 254.45093215 154.56737958 255.60409862 156.3137207 256.76123047 C157.11253662 257.28475098 157.91135254 257.80827148 158.734375 258.34765625 C159.43788086 258.81179932 160.14138672 259.27594238 160.86621094 259.75415039 C163.17257113 261.10075864 165.50107623 262.06659133 168 263 C166.51828283 258.85426283 164.47215909 255.42767137 162.0625 251.75 C161.6720752 251.15082764 161.28165039 250.55165527 160.87939453 249.93432617 C160.03502051 248.63856871 159.1889293 247.34392895 158.34130859 246.05029297 C156.00553824 242.47988899 153.69186939 238.89518484 151.375 235.3125 C150.67165527 234.22690796 150.67165527 234.22690796 149.95410156 233.11938477 C147.38656553 229.15470078 144.83763201 225.17939434 142.3125 221.1875 C140.0311533 217.58792231 137.69213933 214.03532483 135.3125 210.5 C131.80406077 205.26453836 128.42305356 199.95638864 125.0625 194.625 C124.5476001 193.81571045 124.0327002 193.0064209 123.50219727 192.17260742 C121.09355258 188.37791693 118.73414972 184.57507289 116.51171875 180.66796875 C116.12685303 180.01296387 115.7419873 179.35795898 115.34545898 178.68310547 C114.31982153 176.93172722 113.32286902 175.16363902 112.328125 173.39453125 C110.30734984 170.84695184 110.30734984 170.84695184 107.95507812 170.64599609 C105.47742799 170.59827007 105.47742799 170.59827007 102 171 C102 170.34 102 169.68 102 169 C103.98 169 105.96 169 108 169 C104.85513614 163.38901987 101.50128517 157.93508368 98.0625 152.5 C97.55009766 151.68402344 97.03769531 150.86804688 96.50976562 150.02734375 C91.28547252 141.06041706 91.28547252 141.06041706 84 134 C83.30280275 132.01043712 82.64060093 130.00850066 82 128 C80.8515055 125.92408271 79.63826657 123.88314088 78.375 121.875 C78.02888672 121.32239502 77.68277344 120.76979004 77.32617188 120.20043945 C73.66535096 114.39177204 69.8508189 108.68405449 66 103 C64.02 103.33 62.04 103.66 60 104 C61.32 103.34 62.64 102.68 64 102 C62.76916208 96.80312879 60.17101387 93.24417968 57.1015625 89 C54.7295578 85.61394125 52.54559361 82.14202098 50.375 78.625 C46.57781703 72.48929018 42.69563239 66.41630447 38.75 60.375 C34.07743203 53.21718569 29.45572953 46.02944001 24.875 38.8125 C20.56640933 32.02548477 16.24305257 25.24893202 11.875 18.5 C11.43784668 17.82428955 11.00069336 17.1485791 10.55029297 16.45239258 C9.74597425 15.21186259 8.93994288 13.97244059 8.13183594 12.734375 C7.36540573 11.55993147 6.60315118 10.38275417 5.84472656 9.203125 C4.9226159 7.78474814 3.96497772 6.38956792 3 5 C2.67 5 2.34 5 2 5 Z M6 6 C7.31526697 9.63142003 8.91204887 12.51122477 11.1875 15.625 C15.04734116 20.92211223 18.50320081 26.4601846 22 32 C23.09585371 33.72818203 24.1921944 35.45605537 25.2890625 37.18359375 C25.83111328 38.03759766 26.37316406 38.89160156 26.93164062 39.77148438 C32.59640744 48.69006189 38.30675883 57.57618748 44.08203125 66.42358398 C48.92596325 73.85602916 53.68472189 81.34162685 58.41992188 88.84375 C58.97486328 89.7203125 59.52980469 90.596875 60.1015625 91.5 C60.58963379 92.2734375 61.07770508 93.046875 61.58056641 93.84375 C64.14205203 98.18158875 64.14205203 98.18158875 68.1875 100.75 C68.785625 100.8325 69.38375 100.915 70 101 C69.01 101.495 69.01 101.495 68 102 C70.12349483 107.77296989 73.47175985 112.53746789 76.875 117.625 C77.81279297 119.05585938 77.81279297 119.05585938 78.76953125 120.515625 C79.37925781 121.43085938 79.98898438 122.34609375 80.6171875 123.2890625 C81.17003418 124.12131348 81.72288086 124.95356445 82.29248047 125.81103516 C84.00852207 128.01092491 85.7737121 129.3530013 88 131 C88.35454309 132.662284 88.68392182 134.32997501 89 136 C90.39532014 138.49205325 91.82107663 140.86161125 93.375 143.25 C93.81545654 143.93513672 94.25591309 144.62027344 94.7097168 145.32617188 C95.64936998 146.78730365 96.5914181 148.24689754 97.53564453 149.70507812 C99.03761206 152.05894521 100.48903549 154.43865908 101.93359375 156.828125 C102.8929483 158.38558971 103.85257644 159.94288593 104.8125 161.5 C105.25577637 162.24797852 105.69905273 162.99595703 106.15576172 163.76660156 C107.34511644 165.66510624 108.4482663 167.38388146 110 169 C112.72372241 169.62997749 112.72372241 169.62997749 115 169 C115 169.66 115 170.32 115 171 C114.01 171.33 113.02 171.66 112 172 C112.69609375 173.08087891 112.69609375 173.08087891 113.40625 174.18359375 C118.46965824 182.05265917 123.51887965 189.93073742 128.5625 197.8125 C129.24465576 198.87847412 129.92681152 199.94444824 130.62963867 201.04272461 C134.15521291 206.55253342 137.67975943 212.0629973 141.203125 217.57421875 C142.57286221 219.71618066 143.9426531 221.85810824 145.3125 224 C145.97612549 225.03793701 146.63975098 226.07587402 147.32348633 227.14526367 C150.30567602 231.80579335 153.29400952 236.46190748 156.30859375 241.1015625 C156.81028076 241.87371094 157.31196777 242.64585937 157.82885742 243.44140625 C158.73470593 244.8332477 159.64224308 246.22399261 160.55200195 247.61328125 C163.19016924 251.66367206 165.63666865 255.78286286 168 260 C168.33 260 168.66 260 169 260 C168.56699748 254.26271657 167.21824004 249.59320683 165.16796875 244.234375 C163.80714858 240.46594991 162.67243169 236.66081282 161.5625 232.8125 C159.78475168 226.6636062 157.93826638 220.54587087 156.01586914 214.44042969 C150.87261196 198.07245505 145.98557713 181.62832932 141.16992188 165.16162109 C136.79860347 150.23729804 132.27756821 135.36859082 127.58251953 120.54345703 C125.68994517 114.54833214 123.84226515 108.5524423 122.20703125 102.48046875 C121.94486816 101.51093262 121.68270508 100.54139648 121.41259766 99.54248047 C120.94756449 97.79163842 120.49670846 96.03693314 120.06396484 94.27783203 C117.79577745 85.71492917 111.82458683 81.96285935 104.875 77.0625 C103.26110327 75.9110184 101.64784291 74.75864447 100.03515625 73.60546875 C99.20516113 73.0129834 98.37516602 72.42049805 97.52001953 71.81005859 C93.42403354 68.86802797 89.36796586 65.87251824 85.3125 62.875 C83.72135947 61.70051364 82.13021372 60.52603437 80.5390625 59.3515625 C79.7749707 58.78727539 79.01087891 58.22298828 78.22363281 57.64160156 C69.51918557 51.21552523 60.79207714 44.82647445 51.97827148 38.55102539 C47.67068651 35.48356729 43.3883825 32.38347061 39.1171875 29.265625 C36.62753246 27.45610129 34.13229975 25.65524751 31.6328125 23.859375 C30.04674897 22.71892526 28.46081344 21.57829747 26.875 20.4375 C25.70263794 19.59433228 25.70263794 19.59433228 24.5065918 18.73413086 C19.78594428 15.32658415 15.14074142 11.85426168 10.62890625 8.171875 C8.88944565 6.79796607 8.88944565 6.79796607 6 6 Z M120 89 C120.61556655 92.28932018 121.38391705 95.44759719 122.3828125 98.640625 C122.65947754 99.53402588 122.93614258 100.42742676 123.22119141 101.34790039 C123.51944824 102.30559326 123.81770508 103.26328613 124.125 104.25 C126.77049845 112.81726032 129.25219981 121.41596632 131.625 130.0625 C133.78974039 137.93127413 136.14143669 145.60633118 139.0078125 153.25 C140.28514452 156.79032182 141.13491377 160.34001979 142 164 C142.63028587 165.68076231 143.28050817 167.35544725 144 169 C147.3 169 150.6 169 154 169 C154 169.66 154 170.32 154 171 C151.03 171 148.06 171 145 171 C146.12169676 177.44975636 147.73172833 183.23794964 150.0625 189.34765625 C151.13947105 192.39458685 151.78381977 195.41179893 152.41210938 198.57446289 C153.03664773 201.15120232 153.89502157 203.52473211 154.84375 206 C157.47048816 213.10736552 159.39069175 220.3717524 161.35546875 227.68359375 C163.01756449 233.76791707 164.88403291 239.67921251 167.14428711 245.56933594 C168.2261458 248.64237021 168.85849834 251.7299917 169.49609375 254.91796875 C170.27687572 258.14399036 171.59521036 260.99885849 173 264 C177.62278549 259.8554337 180.4731533 255.2262357 183.5625 249.875 C184.62835797 248.06401386 185.69611294 246.25414305 186.765625 244.4453125 C187.30509766 243.53168945 187.84457031 242.61806641 188.40039062 241.67675781 C190.80246926 237.65716225 193.29877816 233.7004366 195.8125 229.75 C196.8126014 228.17584567 197.81259891 226.60162533 198.8125 225.02734375 C199.32683594 224.21765137 199.84117187 223.40795898 200.37109375 222.57373047 C204.00357054 216.83428648 207.59311732 211.06785214 211.18896484 205.30541992 C214.19048988 200.49564022 217.19416241 195.68730365 220.21107483 190.88716125 C221.27249876 189.19823111 222.33291272 187.50866638 223.39331055 185.8190918 C224.7367709 183.67882933 226.08193546 181.53963548 227.42895508 179.40161133 C228.02861084 178.44536865 228.6282666 177.48912598 229.24609375 176.50390625 C229.77904053 175.65642822 230.3119873 174.8089502 230.86108398 173.93579102 C232.08451523 172.23068093 232.08451523 172.23068093 232 171 C228.7 171 225.4 171 222 171 C222 170.34 222 169.68 222 169 C224.64 169 227.28 169 230 169 C226.68816798 165.45749311 223.04038395 162.69699349 219.125 159.875 C218.46878662 159.39780518 217.81257324 158.92061035 217.13647461 158.42895508 C211.55579532 154.37860217 205.94215506 150.37416285 200.31640625 146.38671875 C197.89786184 144.66038471 195.51416215 142.89315317 193.140625 141.10546875 C188.86525221 137.88576882 184.53193658 134.75060153 180.1875 131.625 C178.58713931 130.47149327 176.9868784 129.31784809 175.38671875 128.1640625 C174.62536621 127.61524414 173.86401367 127.06642578 173.07958984 126.50097656 C170.54822707 124.67392581 168.02305409 122.83850453 165.5 121 C160.05643106 117.03575209 154.59832742 113.09174294 149.13623047 109.15307617 C145.07748028 106.22590519 141.02426721 103.29155102 136.98046875 100.34375 C136.16715088 99.75231201 135.35383301 99.16087402 134.51586914 98.55151367 C132.95474103 97.41601734 131.39525586 96.27825781 129.83764648 95.13793945 C129.13067627 94.62448975 128.42370605 94.11104004 127.6953125 93.58203125 C127.07672363 93.13061768 126.45813477 92.6792041 125.82080078 92.21411133 C123.94477029 90.96317278 122.03575361 89.96505847 120 89 Z M-35 137 C-36.66027999 140.85706967 -37.71928101 144.66683212 -38.6875 148.75 C-40.44144712 155.98492443 -42.41232356 163.14916473 -44.4375 170.3125 C-47.1992259 180.09468117 -49.85706741 189.89675256 -52.41162109 199.73486328 C-53.41446223 203.59559361 -54.42479013 207.45434782 -55.4375 211.3125 C-55.63988281 212.08392334 -55.84226562 212.85534668 -56.05078125 213.65014648 C-57.95173217 220.86856207 -59.9252096 228.06670019 -61.90112305 235.26489258 C-63.4885063 241.06628311 -64.99470826 246.88051106 -66.41015625 252.7265625 C-67 255 -67 255 -68.1875 258.375 C-69.29568373 261.49730781 -69.29568373 261.49730781 -69 267 C9.54 267 88.08 267 169 267 C167.60643954 264.21287908 165.83494327 263.73536671 163.0625 262.375 C161.71865234 261.70597656 161.71865234 261.70597656 160.34765625 261.0234375 C158.12127907 259.86679391 158.12127907 259.86679391 156 260 C155.67 259.01 155.34 258.02 155 257 C153.11165015 255.86225691 153.11165015 255.86225691 150.8125 255 C150.00425781 254.66097656 149.19601563 254.32195312 148.36328125 253.97265625 C147.58339844 253.65167969 146.80351562 253.33070313 146 253 C142.5 251.4375 142.5 251.4375 140 250 C139.67 249.01 139.34 248.02 139 247 C136.11650072 245.18319884 136.11650072 245.18319884 133 244 C132.01 244.495 132.01 244.495 131 245 C129.0546875 244.00390625 129.0546875 244.00390625 126.875 242.5625 C125.78832031 241.85287109 125.78832031 241.85287109 124.6796875 241.12890625 C124.12539062 240.75636719 123.57109375 240.38382812 123 240 C123.66 239.34 124.32 238.68 125 238 C112.20724219 227.67322587 112.20724219 227.67322587 98 222 C98 222.99 98 223.98 98 225 C96.9275 224.525625 95.855 224.05125 94.75 223.5625 C92.19160135 222.46233668 89.74164983 221.54832997 87 221 C87 220.01 87 219.02 87 218 C88.32 217.67 89.64 217.34 91 217 C87.09473991 213.75058511 83.02225159 210.9779717 78.75 208.25 C78.0283667 207.78609863 77.3067334 207.32219727 76.56323242 206.84423828 C74.04417417 205.22632146 71.52220271 203.6130102 69 202 C66.93875529 200.67976056 64.87755975 199.35944435 62.81640625 198.0390625 C58.48921073 195.268076 54.16099482 192.49869225 49.83203125 189.73046875 C43.21410931 185.49816265 36.60211357 181.25693137 30 177 C29.31470215 176.55817383 28.6294043 176.11634766 27.92333984 175.66113281 C25.67745425 174.21252427 23.43233332 172.7627386 21.1875 171.3125 C20.46425537 170.84569824 19.74101074 170.37889648 18.99584961 169.89794922 C14.47338338 166.97284628 9.99013221 163.99901553 5.56640625 160.92578125 C4.0162942 159.83039945 4.0162942 159.83039945 2 160 C2 163.3 2 166.6 2 170 C6.29 169.67 10.58 169.34 15 169 C15 169.66 15 170.32 15 171 C11.7 171 8.4 171 5 171 C6.32 171.99 7.64 172.98 9 174 C9.66 174.66 10.32 175.32 11 176 C10.46890625 175.68804687 9.9378125 175.37609375 9.390625 175.0546875 C8.68421875 174.66539062 7.9778125 174.27609375 7.25 173.875 C6.55390625 173.48054688 5.8578125 173.08609375 5.140625 172.6796875 C2.99008723 171.76060766 2.99008723 171.76060766 0.84375 172.7578125 C-1.35553206 174.23953219 -2.59856942 175.75771106 -4 178 C-4 178.66 -4 179.32 -4 180 C-4.66 180 -5.32 180 -6 180 C-2.25 173.25 -2.25 173.25 0 171 C0.80440349 166.55428913 0.91815668 162.42970329 0 158 C-2.62393944 155.14168927 -5.46147826 153.53757195 -9 152 C-10.9756562 154.96348429 -11.26376859 155.68020373 -11.4140625 159.01171875 C-11.45273438 159.76904297 -11.49140625 160.52636719 -11.53125 161.30664062 C-11.57765625 162.48516602 -11.57765625 162.48516602 -11.625 163.6875 C-11.68300781 164.88342773 -11.68300781 164.88342773 -11.7421875 166.10351562 C-11.83632494 168.06863475 -11.91924632 170.0342854 -12 172 C-12.99 172.33 -13.98 172.66 -15 173 C-15 171.02 -15 169.04 -15 167 C-17.87364791 166.58253392 -17.87364791 166.58253392 -21 167 C-22.9354148 169.39056942 -22.9354148 169.39056942 -24 172 C-24.33 171.67 -24.66 171.34 -25 171 C-24.64695801 170.53625977 -24.29391602 170.07251953 -23.93017578 169.59472656 C-22.32505926 167.48237 -20.72499382 165.36623896 -19.125 163.25 C-18.29162109 162.15558594 -18.29162109 162.15558594 -17.44140625 161.0390625 C-16.90644531 160.33007812 -16.37148437 159.62109375 -15.8203125 158.890625 C-15.32805176 158.24125977 -14.83579102 157.59189453 -14.32861328 156.92285156 C-13.01020442 155.01476847 -11.9834015 153.09737912 -11 151 C-22.01432052 141.57178626 -22.01432052 141.57178626 -35 137 Z " transform="translate(102,44)" style="fill: #2B2B2B;"/><path d="M0 0 C0.495 1.485 0.495 1.485 1 3 C2.32 3 3.64 3 5 3 C5 6.96 5 10.92 5 15 C4.01 15 3.02 15 2 15 C1.67 11.7 1.34 8.4 1 5 C-1.87255665 11.10850902 -3.55669585 17.35330739 -5.25 23.875 C-5.86603868 26.20733499 -6.48325684 28.53935872 -7.1015625 30.87109375 C-7.41512695 32.05558105 -7.72869141 33.24006836 -8.05175781 34.46044922 C-9.52688889 39.96674437 -11.07467362 45.4519916 -12.625 50.9375 C-14.88319499 58.9452396 -17.06590779 66.96632707 -19.15014648 75.02099609 C-20.94957021 81.92633101 -22.9191901 88.78006489 -24.94555664 95.62207031 C-26.42798907 100.70211926 -27.61429597 105.75938261 -28.5637207 110.96655273 C-29 113 -29 113 -30 115 C-25.545 114.01 -25.545 114.01 -21 113 C-21 113.66 -21 114.32 -21 115 C-23.31 115.99 -25.62 116.98 -28 118 C-19.75839755 123.56544993 -11.46269972 129.0074035 -3.00195312 134.234375 C2.35050571 137.55551043 7.59292727 141.02374541 12.77734375 144.6015625 C19.06460739 148.8786126 24.64349649 152.6071138 32.5 152.25 C33.5415625 152.21390625 34.583125 152.1778125 35.65625 152.140625 C36.4296875 152.09421875 37.203125 152.0478125 38 152 C38 152.66 38 153.32 38 154 C35.03 154.33 32.06 154.66 29 155 C30.10472656 155.69222656 31.20945312 156.38445312 32.34765625 157.09765625 C41.45224051 162.8178139 50.50436195 168.60985477 59.5 174.5 C68.78769312 180.57888137 78.14134754 186.54161119 87.53857422 192.44921875 C95.71337997 197.59962205 103.85816315 202.79768737 112 208 C112.85625977 208.5470459 113.71251953 209.0940918 114.59472656 209.65771484 C116.98195091 211.18518504 119.36653588 212.71667066 121.75 214.25 C122.45914551 214.70383057 123.16829102 215.15766113 123.89892578 215.62524414 C126.46858337 217.28384131 128.83051249 218.83051249 131 221 C130.67 221.33 130.34 221.66 130 222 C132.97 223.98 132.97 223.98 136 226 C135.67 226.99 135.34 227.98 135 229 C130.545 226.525 130.545 226.525 126 224 C126 223.01 126 222.02 126 221 C118.54870017 214.49992994 109.54066336 209.91088143 101 205 C101 205.99 101 206.98 101 208 C96.87248551 207.39301257 93.6678852 205.96189209 90 204 C90 203.01 90 202.02 90 201 C90.99 200.67 91.98 200.34 93 200 C91.56488934 198.9758104 90.12671309 197.95591673 88.6875 196.9375 C87.88699219 196.36902344 87.08648437 195.80054688 86.26171875 195.21484375 C82.5608458 192.70179589 78.79629677 190.3048793 75.01733398 187.91137695 C71.98938795 185.99327763 68.96830432 184.06482407 65.94921875 182.1328125 C64.92828125 181.47949951 63.90734375 180.82618652 62.85546875 180.15307617 C61.81003906 179.48381104 60.76460937 178.8145459 59.6875 178.125 C58.03621094 177.06792847 58.03621094 177.06792847 56.3515625 175.98950195 C44.93006653 168.67660935 33.52341326 161.34164218 22.14086914 153.96826172 C16.44616889 150.28210385 10.73226018 146.62754262 5 143 C5.495 147.455 5.495 147.455 6 152 C9.96 152 13.92 152 18 152 C18 152.66 18 153.32 18 154 C15.36 154.33 12.72 154.66 10 155 C11.65 155.99 13.3 156.98 15 158 C14.34 158.66 13.68 159.32 13 160 C11.9275 159.29875 10.855 158.5975 9.75 157.875 C6.93135131 156.1937221 6.93135131 156.1937221 3.75 156.4375 C1.59849919 158.35848287 0.43770088 160.51669849 -1 163 C-1.66 163 -2.32 163 -3 163 C-2.5750121 160.13133166 -1.97299628 158.96977904 0 156.76171875 C3.02293674 152.58746821 2.78559713 149.07161308 2.671875 144.05078125 C2.25688981 140.95107016 2.25688981 140.95107016 0.203125 139.04296875 C-1.82772863 137.79348965 -3.7617353 136.81436863 -6 136 C-7.11823815 138.23647631 -7.19396061 139.64891529 -7.31640625 142.1328125 C-7.37924805 143.34130859 -7.37924805 143.34130859 -7.44335938 144.57421875 C-7.48267578 145.41597656 -7.52199219 146.25773438 -7.5625 147.125 C-7.62727539 148.39923828 -7.62727539 148.39923828 -7.69335938 149.69921875 C-7.79954236 151.79928223 -7.90028497 153.89961948 -8 156 C-9.32 156 -10.64 156 -12 156 C-12 154.02 -12 152.04 -12 150 C-15.465 150.99 -15.465 150.99 -19 152 C-19.33 153.32 -19.66 154.64 -20 156 C-21.32 155.67 -22.64 155.34 -24 155 C-23.33613281 154.14277344 -22.67226562 153.28554687 -21.98828125 152.40234375 C-17.5578618 146.66959874 -13.14662576 140.94349693 -9 135 C-11.78937531 131.83532692 -15.28361938 129.73926875 -18.8125 127.5 C-19.41642578 127.10941406 -20.02035156 126.71882813 -20.64257812 126.31640625 C-24.32542913 123.96160162 -28.04912691 121.88770659 -32 120 C-32.38091797 121.79244141 -32.38091797 121.79244141 -32.76953125 123.62109375 C-33.47646911 126.90241761 -34.19178712 130.1816466 -34.92578125 133.45703125 C-35.09505127 134.2147583 -35.26432129 134.97248535 -35.4387207 135.75317383 C-36.19690344 138.78821328 -37.1749083 141.72235176 -38.234375 144.6640625 C-39.45557047 148.38995479 -40.314101 152.2036602 -41.23828125 156.01220703 C-42.84629571 162.54997695 -44.66570436 169.02256785 -46.5 175.5 C-48.79260627 183.60744024 -50.97189424 191.71695655 -52.96875 199.90234375 C-54.48001384 206.00729675 -56.1857142 212.06129412 -57.85302734 218.125 C-59.42559368 223.85657724 -60.93187192 229.5975209 -62.34375 235.37109375 C-63.48312471 239.93537459 -64.74189309 244.46724603 -66 249 C-66.66 248.34 -67.32 247.68 -68 247 C-67.65438002 240.06348739 -65.6160001 233.57665625 -63.6875 226.9375 C-63.04876901 224.7007235 -62.41074498 222.463745 -61.7734375 220.2265625 C-61.46631836 219.1530957 -61.15919922 218.07962891 -60.84277344 216.97363281 C-59.79119129 213.26324156 -58.79395851 209.54204233 -57.8125 205.8125 C-55.58877975 197.39816873 -53.21671596 189.02887131 -50.70703125 180.6953125 C-48.68259477 173.95089864 -46.76468286 167.32760194 -45.52734375 160.38671875 C-44.66156223 156.46825571 -43.25543707 152.73614889 -41.94140625 148.94921875 C-40.82249707 145.44392236 -40.14492324 141.95422964 -39.48828125 138.33984375 C-39.01982105 136.09498246 -38.3885877 134.03509568 -37.625 131.875 C-36.03210235 127.31710475 -34.90218643 122.6880967 -33.7644043 117.99853516 C-31.87722129 110.32545046 -29.71377691 102.73171164 -27.54980469 95.1328125 C-25.83289133 89.0781282 -24.23273055 83.00818918 -22.72583008 76.89794922 C-21.59708931 72.39133877 -20.36178673 67.91543554 -19.125 63.4375 C-16.92915453 55.45154591 -14.78295283 47.45519222 -12.73681641 39.42944336 C-11.76015605 35.65582834 -10.6755382 31.95997582 -9.41796875 28.26953125 C-8.37022868 25.19152445 -7.5357171 22.21430258 -7 19 C-6.10499673 14.16091452 -4.67436487 9.62124705 -3 5 C-2.34 5 -1.68 5 -1 5 C-0.67 3.35 -0.34 1.7 0 0 Z " transform="translate(99,61)" style="fill: #2E2E2E;"/><path d="M0 0 C4.27998247 0.90969283 7.54587603 3.03781193 11.1875 5.375 C12.22849854 6.03459717 12.22849854 6.03459717 13.29052734 6.70751953 C15.5316546 8.13122959 17.76659678 9.5642067 20 11 C21.1444458 11.73476563 21.1444458 11.73476563 22.31201172 12.484375 C29.24175569 16.93910574 36.15526029 21.41551701 43 26 C42.47462276 20.9697924 41.89405214 15.98114761 41 11 C43.53605069 13.53605069 43.79250373 15.46876556 44.625 18.9375 C44.88539063 19.99839844 45.14578125 21.05929687 45.4140625 22.15234375 C46 25 46 25 46 28 C46.66 28 47.32 28 48 28 C47.67 28.99 47.34 29.98 47 31 C-33.85 31 -114.7 31 -198 31 C-197.67 29.35 -197.34 27.7 -197 26 C-196.34 26.66 -195.68 27.32 -195 28 C-191.89122003 28.19381234 -188.87176964 28.26027946 -185.76205444 28.24050903 C-184.79254368 28.24221788 -183.82303293 28.24392673 -182.82414305 28.24568737 C-179.5550516 28.2489981 -176.28616258 28.23795257 -173.01708984 28.22705078 C-170.68184921 28.22648701 -168.34660822 28.22680256 -166.0113678 28.22793579 C-159.65422016 28.22851163 -153.2971474 28.21671997 -146.94001722 28.20278788 C-140.9747666 28.19158114 -135.00951899 28.18954372 -129.04425927 28.18748413 C-117.22675762 28.18310392 -105.40928354 28.169786 -93.59179688 28.15087891 C-82.11035297 28.13252853 -70.62891654 28.11836791 -59.14746094 28.10986328 C-58.44006843 28.10933783 -57.73267593 28.10881239 -57.00384729 28.10827102 C-53.45516371 28.10566099 -49.90648009 28.10313357 -46.35779643 28.10064721 C-16.90517984 28.07990457 12.54740979 28.0445218 42 28 C41.16855469 27.60167969 40.33710938 27.20335937 39.48046875 26.79296875 C38.39378906 26.26316406 37.30710937 25.73335938 36.1875 25.1875 C35.10855469 24.66542969 34.02960938 24.14335937 32.91796875 23.60546875 C30.40181381 22.22107828 28.89522057 21.08347765 27 19 C24.90775639 17.89825251 24.90775639 17.89825251 22.625 17 C15.78210141 14.06413976 15.78210141 14.06413976 13 12 C13 11.01 13 10.02 13 9 C12.34 8.79375 11.68 8.5875 11 8.375 C6.90698622 6.49903535 3.42505088 3.91511774 0 1 C0 0.67 0 0.34 0 0 Z " transform="translate(228,282)" style="fill: #292929;"/><path d="M0 0 C1.89510699 -0.08160748 3.79124504 -0.13946459 5.6875 -0.1875 C6.74324219 -0.22230469 7.79898437 -0.25710937 8.88671875 -0.29296875 C12.39065615 0.03676187 14.19698511 0.91415288 17 3 C18.5547669 6.10953379 18.28644437 8.56266761 18 12 C15.92028124 16.32581502 13.72246312 18.83519936 9.1484375 20.54296875 C4.81233757 21.46537546 0.40499198 21.21507194 -4 21 C-3.73445313 20.31035156 -3.46890625 19.62070313 -3.1953125 18.91015625 C-0.96453638 12.97498913 0.77617746 7.22109789 2 1 C1.34 0.67 0.68 0.34 0 0 Z " transform="translate(345,199)" style="fill: #F3F3F3;"/><path d="M0 0 C0.66 0 1.32 0 2 0 C1.43047364 4.07430399 0.14577155 6.71375126 -2.125 10.125 C-2.76179688 11.09566406 -3.39859375 12.06632813 -4.0546875 13.06640625 C-5.01761719 14.51853516 -5.01761719 14.51853516 -6 16 C-10.16120691 22.44091117 -14.20198339 28.94950522 -18.1875 35.5 C-22.62340628 42.79025527 -27.14835942 50.01967352 -31.71826172 57.2265625 C-35.26148688 62.8178344 -38.74504923 68.44155763 -42.203125 74.0859375 C-45.0835111 78.75717235 -48.042178 83.37757414 -51 88 C-52.31299972 90.06218191 -53.62551145 92.12467462 -54.9375 94.1875 C-55.95833333 95.79166667 -56.97916667 97.39583333 -58 99 C-58.99 98.67 -59.98 98.34 -61 98 C-61.33 95.69 -61.66 93.38 -62 91 C-61.01 92.32 -60.02 93.64 -59 95 C-49.06206127 79.48480738 -49.06206127 79.48480738 -39.375 63.8125 C-34.19492559 55.2806686 -28.87695769 46.8406415 -23.52929688 38.41308594 C-21.46154584 35.15037023 -19.40229168 31.88232808 -17.34301758 28.61425781 C-15.84467015 26.23850834 -14.34272126 23.86507325 -12.83984375 21.4921875 C-10.98718142 18.56693118 -9.1470513 15.63439038 -7.31640625 12.6953125 C-6.50280055 11.40091821 -5.68900994 10.10664011 -4.875 8.8125 C-4.50866455 8.21783936 -4.1423291 7.62317871 -3.76489258 7.01049805 C-2.896557 5.63844907 -1.95529143 4.31299023 -1 3 C-0.34 3 0.32 3 1 3 C0.505 1.515 0.505 1.515 0 0 Z " transform="translate(335,212)" style="fill: #313131;"/><path d="M0 0 C1.62463842 -0.05395478 3.24978541 -0.09277195 4.875 -0.125 C6.23238281 -0.15980469 6.23238281 -0.15980469 7.6171875 -0.1953125 C10 0 10 0 12 2 C12.375 4.4375 12.375 4.4375 12 7 C10 8.8125 10 8.8125 8 10 C8.66 10.33 9.32 10.66 10 11 C10.4165657 14.66577816 10.46351526 16.39263517 8.1875 19.375 C3.51397764 21.75758003 -0.85167012 21.32458822 -6 21 C-5.3503125 19.22882813 -5.3503125 19.22882813 -4.6875 17.421875 C-4.12466699 15.86470366 -3.56218533 14.30740529 -3 12.75 C-2.57074219 11.58404297 -2.57074219 11.58404297 -2.1328125 10.39453125 C-1.86210937 9.64042969 -1.59140625 8.88632812 -1.3125 8.109375 C-1.06113281 7.41811523 -0.80976563 6.72685547 -0.55078125 6.01464844 C0.17580721 3.70502888 0.17580721 3.70502888 0 0 Z " transform="translate(14,314)" style="fill: #222222;"/><path d="M0 0 C5.73883072 0.43801044 9.26204986 2.7838517 13.875 5.9375 C15.37027354 6.9335241 16.86639011 7.92828359 18.36328125 8.921875 C19.12463379 9.43041016 19.88598633 9.93894531 20.67041016 10.46289062 C24.42475894 12.94008408 28.24133941 15.3151637 32.0625 17.6875 C33.10736572 18.33803345 33.10736572 18.33803345 34.17333984 19.00170898 C35.78142578 20.00242727 37.39058248 21.00142466 39 22 C38.67 22.66 38.34 23.32 38 24 C39.98 25.32 41.96 26.64 44 28 C43.505 29.485 43.505 29.485 43 31 C40.03 29.35 37.06 27.7 34 26 C34 25.01 34 24.02 34 23 C26.54870017 16.49992994 17.54066336 11.91088143 9 7 C9 7.99 9 8.98 9 10 C4.87248551 9.39301257 1.6678852 7.96189209 -2 6 C-2 5.01 -2 4.02 -2 3 C-1.01 2.67 -0.02 2.34 1 2 C0.67 1.34 0.34 0.68 0 0 Z " transform="translate(191,259)" style="fill: #363636;"/><path d="M0 0 C4.27998247 0.90969283 7.54587603 3.03781193 11.1875 5.375 C11.88149902 5.81473145 12.57549805 6.25446289 13.29052734 6.70751953 C15.5316546 8.13122959 17.76659678 9.5642067 20 11 C20.76296387 11.48984375 21.52592773 11.9796875 22.31201172 12.484375 C29.24175569 16.93910574 36.15526029 21.41551701 43 26 C42.47462276 20.9697924 41.89405214 15.98114761 41 11 C43.53605069 13.53605069 43.79250373 15.46876556 44.625 18.9375 C45.01558594 20.52884766 45.01558594 20.52884766 45.4140625 22.15234375 C46 25 46 25 46 28 C46.66 28 47.32 28 48 28 C48 28.66 48 29.32 48 30 C46.35 30 44.7 30 43 30 C42.505 29.01 42.505 29.01 42 28 C39.01022422 26.39801566 35.95100326 24.98053286 32.8828125 23.53515625 C30.31876812 22.1697505 28.97125795 21.03216761 27 19 C24.90775639 17.89825251 24.90775639 17.89825251 22.625 17 C15.78210141 14.06413976 15.78210141 14.06413976 13 12 C13 11.01 13 10.02 13 9 C12.34 8.79375 11.68 8.5875 11 8.375 C6.90698622 6.49903535 3.42505088 3.91511774 0 1 C0 0.67 0 0.34 0 0 Z " transform="translate(228,282)" style="fill: #202020;"/><path d="M0 0 C2.64 0 5.28 0 8 0 C7.525625 0.7425 7.05125 1.485 6.5625 2.25 C4.78837697 5.08606702 4.78837697 5.08606702 4 9 C6.97 9 9.94 9 13 9 C13 6.03 13 3.06 13 0 C15.64 0 18.28 0 21 0 C20.32517578 1.04994141 20.32517578 1.04994141 19.63671875 2.12109375 C17.96550872 5.06066844 16.8707836 7.85521139 15.8125 11.0625 C15.46832031 12.08472656 15.12414062 13.10695313 14.76953125 14.16015625 C13.82563712 17.1530844 13.82563712 17.1530844 14 21 C12.35 21 10.7 21 9 21 C9.99 17.7 10.98 14.4 12 11 C8.7 11 5.4 11 2 11 C1.67 14.3 1.34 17.6 1 21 C-0.65 21 -2.3 21 -4 21 C-3.65066406 20.05898437 -3.30132812 19.11796875 -2.94140625 18.1484375 C-2.48149655 16.89072526 -2.02187653 15.63290707 -1.5625 14.375 C-1.11003906 13.14523438 -0.65757813 11.91546875 -0.19140625 10.6484375 C0.86790518 7.40451332 1.54835242 4.3743785 2 1 C1.34 0.67 0.68 0.34 0 0 Z " transform="translate(113,98)" style="fill: #494949;"/><path d="M0 0 C1.79133978 -0.05391993 3.58313899 -0.09275571 5.375 -0.125 C6.37273437 -0.14820312 7.37046875 -0.17140625 8.3984375 -0.1953125 C11 0 11 0 13 2 C13.4375 4.375 13.4375 4.375 13 7 C9.41232454 10.91382777 6.19088499 11.59287177 1 12 C0.34 14.64 -0.32 17.28 -1 20 C-2.32 19.67 -3.64 19.34 -5 19 C-4.72285156 18.29875 -4.44570312 17.5975 -4.16015625 16.875 C-1.98497292 11.17772268 -0.45919706 6.08436109 0 0 Z " transform="translate(99,20)" style="fill: #313030;"/><path d="M0 0 C1.89510699 -0.08160748 3.79124504 -0.13946459 5.6875 -0.1875 C6.74324219 -0.22230469 7.79898437 -0.25710937 8.88671875 -0.29296875 C12.39065615 0.03676187 14.19698511 0.91415288 17 3 C18.5547669 6.10953379 18.28644437 8.56266761 18 12 C15.92028124 16.32581502 13.72246312 18.83519936 9.1484375 20.54296875 C4.81233757 21.46537546 0.40499198 21.21507194 -4 21 C-3.73445313 20.31035156 -3.46890625 19.62070313 -3.1953125 18.91015625 C-0.96453638 12.97498913 0.77617746 7.22109789 2 1 C1.34 0.67 0.68 0.34 0 0 Z M5 1 C4.32873871 3.4363189 3.66283646 5.87388883 3 8.3125 C2.80921875 9.00279297 2.6184375 9.69308594 2.421875 10.40429688 C1.62283816 13.35787949 1 15.92559219 1 19 C5.99184736 19.29363808 8.97444744 19.07836372 13 16 C14.2220897 13.5558206 14.23641068 11.78970128 14.3125 9.0625 C14.34988281 8.18722656 14.38726562 7.31195313 14.42578125 6.41015625 C14.2070764 3.88814224 14.2070764 3.88814224 12.29296875 2.18359375 C9.64904608 0.81884321 7.93529226 0.75539231 5 1 Z " transform="translate(345,199)" style="fill: #242424;"/><path d="M0 0 C8.39299247 4.77977308 16.50907062 9.85492265 24.5625 15.1875 C26.83575404 16.68715963 29.11074908 18.18415287 31.38671875 19.6796875 C31.94703796 20.04800186 32.50735718 20.41631622 33.08465576 20.79579163 C39.06281911 24.71465125 45.11796247 28.51088789 51.21313477 32.24487305 C54.90139506 34.53441194 58.08387335 36.7250829 61 40 C56.12786941 39.48861225 52.7073252 37.11240702 48.75 34.4375 C47.23895435 33.43778397 45.7271892 32.43915489 44.21484375 31.44140625 C43.38839355 30.89371582 42.56194336 30.34602539 41.71044922 29.78173828 C36.6102602 26.42908295 31.45711667 23.15887969 26.3125 19.875 C25.24169189 19.18825195 24.17088379 18.50150391 23.06762695 17.79394531 C18.4926002 14.86023276 13.91521951 11.93459146 9.2890625 9.08203125 C8.29072388 8.46062256 8.29072388 8.46062256 7.2722168 7.82666016 C5.58077786 6.77646001 3.88248651 5.73731769 2.18359375 4.69921875 C1.46300781 4.13847656 0.74242187 3.57773438 0 3 C0 2.01 0 1.02 0 0 Z " transform="translate(132,219)" style="fill: #2B2B2B;"/><path d="M0 0 C1.09570312 0.00902344 2.19140625 0.01804688 3.3203125 0.02734375 C4.16335937 0.03894531 5.00640625 0.05054688 5.875 0.0625 C5.545 2.0425 5.215 4.0225 4.875 6.0625 C4.215 6.0625 3.555 6.0625 2.875 6.0625 C2.875 4.7425 2.875 3.4225 2.875 2.0625 C-1.26498349 1.73779541 -3.46499001 1.6320587 -7 3.9375 C-9.20564138 6.14314138 -10.0619464 7.0684786 -10.2578125 10.15625 C-10.25523437 10.9503125 -10.25265625 11.744375 -10.25 12.5625 C-10.25257813 13.3565625 -10.25515625 14.150625 -10.2578125 14.96875 C-10.25777996 17.12168534 -10.25777996 17.12168534 -9.125 19.0625 C-6.80343403 19.46979228 -4.4681213 19.80688677 -2.125 20.0625 C-1.63 15.6075 -1.63 15.6075 -1.125 11.0625 C0.525 11.0625 2.175 11.0625 3.875 11.0625 C3.42417531 12.52317199 2.96406463 13.98098032 2.5 15.4375 C2.24476563 16.24960938 1.98953125 17.06171875 1.7265625 17.8984375 C0.875 20.0625 0.875 20.0625 -1.125 22.0625 C-5.79595343 22.93428895 -9.19270471 22.6713459 -13.1875 20.0625 C-15.16136355 17.00619515 -15.96709012 14.86464673 -15.7578125 11.1953125 C-14.50422941 6.97027319 -11.32702145 3.96750136 -8.125 1.0625 C-5.36047967 -0.31976016 -3.0788637 -0.03275387 0 0 Z " transform="translate(207.125,154.9375)" style="fill: #3F3F3F;"/><path d="M0 0 C1.85142719 2.77714078 2.31364854 3.88392658 2.875 7 C3.58462795 10.49513849 4.57321231 13.70388167 5.8515625 17.03125 C8.4781101 24.12732789 10.39346709 31.38208074 12.35546875 38.68359375 C14.04157301 44.85580346 15.95691314 50.80113266 18.34570312 56.74023438 C19 59 19 59 18 62 C18 61.34 18 60.68 18 60 C17.34 60 16.68 60 16 60 C15.72027344 59.10023438 15.44054687 58.20046875 15.15234375 57.2734375 C14.74755296 55.97390938 14.34258896 54.6744352 13.9375 53.375 C13.71779541 52.67004395 13.49809082 51.96508789 13.27172852 51.23876953 C11.65259017 46.05641209 10.00467708 40.88375499 8.34619141 35.71386719 C6.88429379 31.14671366 5.43939921 26.57428705 4 22 C3.76829102 21.26845703 3.53658203 20.53691406 3.29785156 19.78320312 C1.17966934 13.04026867 -0.56759847 7.0949809 0 0 Z " transform="translate(252,233)" style="fill: #373737;"/><path d="M0 0 C4.29 0 8.58 0 13 0 C12.67 1.32 12.34 2.64 12 4 C11.67 3.67 11.34 3.34 11 3 C9.65252916 2.76924918 8.29622435 2.58846937 6.9375 2.4375 C5.638125 2.293125 4.33875 2.14875 3 2 C2.67 4.64 2.34 7.28 2 10 C3.98 9.01 5.96 8.02 8 7 C7.67 9.31 7.34 11.62 7 14 C6.34 14 5.68 14 5 14 C5 13.01 5 12.02 5 11 C3.68 11 2.36 11 1 11 C0.34 13.97 -0.32 16.94 -1 20 C2.46941546 19.54177532 5.67395049 19.10868317 9 18 C9 17.34 9 16.68 9 16 C9.66 16 10.32 16 11 16 C10.01 18.475 10.01 18.475 9 21 C4.05 21 -0.9 21 -6 21 C-4.73046875 17.58203125 -3.4609375 14.1640625 -2.19140625 10.74609375 C-1.02114858 7.06649667 -0.42738647 3.81700334 0 0 Z " transform="translate(225,101)" style="fill: #0B0B0C;"/><path d="M0 0 C0.33 0.99 0.66 1.98 1 3 C2.32 3 3.64 3 5 3 C5 6.96 5 10.92 5 15 C4.01 15 3.02 15 2 15 C1.67 11.7 1.34 8.4 1 5 C-2.62829167 12.55434588 -4.32696353 20.63804384 -6.30664062 28.74804688 C-6.59603516 29.87662109 -6.88542969 31.00519531 -7.18359375 32.16796875 C-7.43681396 33.19172607 -7.69003418 34.2154834 -7.95092773 35.27026367 C-9.12543625 38.32639113 -10.54707913 39.87341569 -13 42 C-12.0800107 37.42170032 -11.0511575 32.97188174 -9.5 28.5625 C-8.11700485 24.58638896 -7.30353471 20.6411453 -6.5390625 16.5078125 C-5.69053003 12.56029187 -4.37377539 8.79162007 -3 5 C-2.34 5 -1.68 5 -1 5 C-0.67 3.35 -0.34 1.7 0 0 Z " transform="translate(99,61)" style="fill: #2D2D2D;"/><path d="M0 0 C4.95 0 9.9 0 15 0 C14.67 1.65 14.34 3.3 14 5 C13.67 4.01 13.34 3.02 13 2 C9.7 2 6.4 2 3 2 C2.67 4.64 2.34 7.28 2 10 C4.31 9.34 6.62 8.68 9 8 C8.67 9.98 8.34 11.96 8 14 C7.67 13.01 7.34 12.02 7 11 C5.02 11 3.04 11 1 11 C0.67 14.3 0.34 17.6 0 21 C-1.65 21 -3.3 21 -5 21 C-4.80664062 20.23816406 -4.61328125 19.47632813 -4.4140625 18.69140625 C-2.8473236 12.47874359 -1.35673835 6.26186932 0 0 Z " transform="translate(51,164)" style="fill: #1E1E1E;"/><path d="M0 0 C-0.33 2.31 -0.66 4.62 -1 7 C-3 4 -3 4 -3 2 C-7.64474974 1.67594769 -10.29105728 2.11526677 -14 5 C-16.79984643 8.59980255 -16.28080979 12.64744832 -16 17 C-14.13502523 19.28143813 -14.13502523 19.28143813 -11.1875 19.3125 C-7.67774407 18.96840628 -5.85135899 18.01272399 -3 16 C-3.94724127 18.36810318 -4.65291134 19.75207953 -6.75 21.25 C-9.7748674 22.25828913 -11.82612473 22.45341075 -15 22 C-17.875 20 -17.875 20 -20 17 C-20.69682031 12.12225784 -20.54501161 10.0698376 -18.3125 5.6875 C-12.840945 -0.67133419 -7.98084447 -0.37737793 0 0 Z " transform="translate(292,314)" style="fill: #282828;"/><path d="M0 0 C2.46314316 8.18290181 -0.588168 17.01167495 -2.875 24.9375 C-3.13152344 25.84951172 -3.38804688 26.76152344 -3.65234375 27.70117188 C-4.16728311 29.5319236 -4.68515002 31.36185461 -5.20605469 33.19091797 C-6.50442439 37.78471926 -7.75202229 42.39229678 -9 47 C-9.66 46.34 -10.32 45.68 -11 45 C-10.65813606 37.99992877 -8.57542074 31.44751914 -6.625 24.75 C-4.257598 16.53431254 -2.01853907 8.30900016 0 0 Z " transform="translate(42,263)" style="fill: #393939;"/><path d="M0 0 C4.087817 0.54986565 6.42965103 1.75284041 9.6875 4.25 C10.62851563 4.95898438 11.56953125 5.66796875 12.5390625 6.3984375 C13.34005371 7.00510254 13.34005371 7.00510254 14.15722656 7.62402344 C18.71120582 11.02442448 23.35999436 14.29831988 27.98120117 17.60644531 C28.73119385 18.14624023 29.48118652 18.68603516 30.25390625 19.2421875 C30.92752197 19.7254248 31.6011377 20.20866211 32.29516602 20.70654297 C34 22 34 22 36 24 C35.01 24.33 34.02 24.66 33 25 C30.49995863 23.35266223 28.21162488 21.67018412 25.875 19.8125 C24.44713822 18.70597341 23.0173829 17.60188676 21.5859375 16.5 C20.84053711 15.92507812 20.09513672 15.35015625 19.32714844 14.7578125 C14.72787523 11.28374965 9.97582798 8.02253374 5.23388672 4.74731445 C3.4729624 3.521289 1.7339053 2.26394829 0 1 C0 0.67 0 0.34 0 0 Z " transform="translate(172,96)" style="fill: #353535;"/><path d="M0 0 C1.42440411 4.53563578 0.13414206 8.18341098 -1.125 12.625 C-1.35292236 13.45443115 -1.58084473 14.2838623 -1.81567383 15.13842773 C-2.2949226 16.87868443 -2.77815677 18.61784792 -3.26513672 20.35595703 C-3.9889913 22.96039063 -4.68745375 25.57039045 -5.37890625 28.18359375 C-5.81468434 29.81000838 -6.25086677 31.43631474 -6.6875 33.0625 C-6.88939941 33.82965332 -7.09129883 34.59680664 -7.29931641 35.38720703 C-8.77186571 40.77186571 -8.77186571 40.77186571 -11 43 C-10.42843137 36.75002127 -9.3999581 30.92442507 -7.75 24.875 C-7.53255127 24.06184326 -7.31510254 23.24868652 -7.09106445 22.41088867 C-5.02838212 14.83539382 -2.60170498 7.40655589 0 0 Z " transform="translate(88,98)" style="fill: #2C2C2C;"/><path d="M0 0 C3.95906817 1.43308135 7.28718181 3.33141949 10.8125 5.625 C11.78832031 6.25664062 12.76414062 6.88828125 13.76953125 7.5390625 C14.50558594 8.02117187 15.24164063 8.50328125 16 9 C15.01 9.66 14.02 10.32 13 11 C13 10.34 13 9.68 13 9 C6.565 9.495 6.565 9.495 0 10 C0 6.7 0 3.4 0 0 Z " transform="translate(104,204)" style="fill: #EDEDED;"/><path d="M0 0 C2.475 0.99 2.475 0.99 5 2 C5 3.65 5 5.3 5 7 C4.34 6.67 3.68 6.34 3 6 C2.67 7.98 2.34 9.96 2 12 C1.34 12 0.68 12 0 12 C-1.32 15.3 -2.64 18.6 -4 22 C-6.3080268 15.07591961 -2.39879057 6.62066197 0 0 Z " transform="translate(102,44)" style="fill: #292929;"/><path d="M0 0 C2.64 0 5.28 0 8 0 C7.32517578 1.04994141 7.32517578 1.04994141 6.63671875 2.12109375 C4.96550872 5.06066844 3.8707836 7.85521139 2.8125 11.0625 C2.46832031 12.08472656 2.12414062 13.10695313 1.76953125 14.16015625 C0.82563712 17.1530844 0.82563712 17.1530844 1 21 C-0.65 21 -2.3 21 -4 21 C-3.566875 19.98292969 -3.566875 19.98292969 -3.125 18.9453125 C-0.51239961 12.39566848 0.54937981 7.03511364 0 0 Z " transform="translate(126,98)" style="fill: #1A1A1A;"/><path d="M0 0 C3.86873647 4.55090498 6.96338764 9.51238196 10.125 14.5625 C10.66253906 15.41263672 11.20007813 16.26277344 11.75390625 17.13867188 C13.9946726 20.70098746 16.17062808 24.20552857 18 28 C17.01 28 16.02 28 15 28 C13.45703125 26.05078125 13.45703125 26.05078125 11.8125 23.3125 C11.20921875 22.31734375 10.6059375 21.3221875 9.984375 20.296875 C9.32953125 19.20890625 8.6746875 18.1209375 8 17 C7.2587387 15.83628536 6.51388749 14.67485031 5.765625 13.515625 C5.03113805 12.36465477 4.29676082 11.21361451 3.5625 10.0625 C2.54349609 8.47115234 2.54349609 8.47115234 1.50390625 6.84765625 C0 4 0 4 0 0 Z " transform="translate(224,231)" style="fill: #2C2C2C;"/><path d="M0 0 C0.33 0.99 0.66 1.98 1 3 C-0.1875 5.3125 -0.1875 5.3125 -2 8 C-2.96099609 9.44826172 -2.96099609 9.44826172 -3.94140625 10.92578125 C-4.62074219 11.94027344 -5.30007813 12.95476562 -6 14 C-7.31775301 16.05914776 -8.63053883 18.12148572 -9.9375 20.1875 C-10.95833333 21.79166667 -11.97916667 23.39583333 -13 25 C-13.99 24.67 -14.98 24.34 -16 24 C-16.33 21.69 -16.66 19.38 -17 17 C-16.01 18.32 -15.02 19.64 -14 21 C-13.61142822 20.39937744 -13.22285645 19.79875488 -12.82250977 19.17993164 C-11.07044658 16.47329429 -9.31649922 13.76788309 -7.5625 11.0625 C-6.95083984 10.11697266 -6.33917969 9.17144531 -5.70898438 8.19726562 C-5.12568359 7.29814453 -4.54238281 6.39902344 -3.94140625 5.47265625 C-3.40201416 4.64000244 -2.86262207 3.80734863 -2.30688477 2.94946289 C-1 1 -1 1 0 0 Z " transform="translate(290,286)" style="fill: #363636;"/><path d="M0 0 C0.33 0 0.66 0 1 0 C1.33 4.95 1.66 9.9 2 15 C0.68 15 -0.64 15 -2 15 C-2 13.02 -2 11.04 -2 9 C-4.31 9.66 -6.62 10.32 -9 11 C-9.33 12.32 -9.66 13.64 -10 15 C-11.32 14.67 -12.64 14.34 -14 14 C-12.20049043 11.41608882 -10.38682039 9.06581634 -8 7 C-4.125 6.5625 -4.125 6.5625 -1 7 C-0.67 4.69 -0.34 2.38 0 0 Z " transform="translate(89,202)" style="fill: #292929;"/><path d="M0 0 C3.63 0 7.26 0 11 0 C11 0.33 11 0.66 11 1 C8.03 1 5.06 1 2 1 C2.34933594 2.05058594 2.69867188 3.10117188 3.05859375 4.18359375 C5.43505089 11.46642484 7.58728489 18.29598455 8 26 C5.78139774 23.78139774 5.38150348 22.53093164 4.4921875 19.5703125 C4.22792969 18.69246094 3.96367187 17.81460938 3.69140625 16.91015625 C3.42199219 15.99105469 3.15257812 15.07195312 2.875 14.125 C2.59785156 13.21363281 2.32070312 12.30226562 2.03515625 11.36328125 C0.84070848 7.34452349 0 4.23785168 0 0 Z " transform="translate(245,214)" style="fill: #1F1F1F;"/><path d="M0 0 C2.5 0.125 2.5 0.125 3.5 1.125 C3.8125 3.5 3.8125 3.5 3.5 6.125 C1.75 7.9375 1.75 7.9375 -0.5 9.125 C-1.82 9.125 -3.14 9.125 -4.5 9.125 C-3.50558659 0.17527933 -3.50558659 0.17527933 0 0 Z " transform="translate(105.5,20.875)" style="fill: #ECECEC;"/><path d="M0 0 C4.875 0.875 4.875 0.875 6 2 C6.25 4.4375 6.25 4.4375 6 7 C2.77208445 9.1519437 1.71599191 9.20086443 -2 9 C-1.34 6.03 -0.68 3.06 0 0 Z " transform="translate(15,324)" style="fill: #EAEAEA;"/><path d="M0 0 C0 3.96 0 7.92 0 12 C-0.66 11.01 -1.32 10.02 -2 9 C-2.33 9.99 -2.66 10.98 -3 12 C-5.31 12 -7.62 12 -10 12 C-9.06692579 10.55962331 -8.12834923 9.12281015 -7.1875 7.6875 C-6.66542969 6.88699219 -6.14335938 6.08648437 -5.60546875 5.26171875 C-1.87046632 0 -1.87046632 0 0 0 Z " transform="translate(91,197)" style="fill: #3A3A3A;"/><path d="M0 0 C0.33 0.66 0.66 1.32 1 2 C1.66 2 2.32 2 3 2 C2.34 4.97 1.68 7.94 1 11 C4.46941546 10.54177532 7.67395049 10.10868317 11 9 C11 8.34 11 7.68 11 7 C11.66 7 12.32 7 13 7 C12.34 8.65 11.68 10.3 11 12 C6.05 12 1.1 12 -4 12 C-2.68 8.04 -1.36 4.08 0 0 Z " transform="translate(223,110)" style="fill: #262626;"/><path d="M0 0 C1.36365283 0.95824253 2.70794169 1.94721175 4 3 C3.67 3.99 3.34 4.98 3 6 C-1.12751449 5.39301257 -4.3321148 3.96189209 -8 2 C-8 1.01 -8 0.02 -8 -1 C-4.30741897 -2.23086034 -3.41793707 -1.66728638 0 0 Z " transform="translate(197,263)" style="fill: #E8E8E8;"/><path d="M0 0 C1.85142719 2.77714078 2.31364854 3.88392658 2.875 7 C3.83564191 11.76415905 5.47880121 16.11702632 7.29296875 20.6171875 C8 23 8 23 7 26 C7 25.34 7 24.68 7 24 C6.34 24 5.68 24 5 24 C1.72079891 15.84012753 0 8.77649045 0 0 Z " transform="translate(252,233)" style="fill: #454545;"/><path d="M0 0 C1.96140354 2.94210531 2.67877773 4.99742274 3.5625 8.375 C3.81128906 9.31085938 4.06007812 10.24671875 4.31640625 11.2109375 C4.95037502 13.7975301 5.50066684 16.38444535 6 19 C9.3 19 12.6 19 16 19 C16 19.33 16 19.66 16 20 C12.04 20.33 8.08 20.66 4 21 C3.13118459 18.44165429 2.2797867 15.87957539 1.4375 13.3125 C1.19064453 12.59126953 0.94378906 11.87003906 0.68945312 11.12695312 C-0.63020068 7.05647168 -1.38992772 4.21972067 0 0 Z " transform="translate(240,194)" style="fill: #2C2C2C;"/><path d="M0 0 C3.35595828 0.59927826 5.37801226 1.84622436 8 4 C7.67 4.33 7.34 4.66 7 5 C8.98 6.32 10.96 7.64 13 9 C12.67 9.99 12.34 10.98 12 12 C9.03 10.35 6.06 8.7 3 7 C3 6.01 3 5.02 3 4 C2.01 3.34 1.02 2.68 0 2 C0 1.34 0 0.68 0 0 Z " transform="translate(222,278)" style="fill: #404040;"/><path d="M0 0 C1.65 0 3.3 0 5 0 C5.6875 2.3125 5.6875 2.3125 6 5 C4.875 6.8125 4.875 6.8125 3 8 C0.3125 8.1875 0.3125 8.1875 -2 8 C-1.34 5.36 -0.68 2.72 0 0 Z " transform="translate(17,315)" style="fill: #E0E0E0;"/><path d="M0 0 C0.66 0 1.32 0 2 0 C1.26309887 6.48472993 -0.35318751 12.69239743 -2 19 C-3.32 18.67 -4.64 18.34 -6 18 C-4.02 12.06 -2.04 6.12 0 0 Z " transform="translate(100,21)" style="fill: #161616;"/><path d="M0 0 C1.89510699 -0.08160748 3.79124504 -0.13946459 5.6875 -0.1875 C6.74324219 -0.22230469 7.79898437 -0.25710937 8.88671875 -0.29296875 C12.35422768 0.03333385 14.18432448 1.00969875 17 3 C16.01 3.495 16.01 3.495 15 4 C15 6.64 15 9.28 15 12 C14.67 12 14.34 12 14 12 C13.75585938 8.97265625 13.75585938 8.97265625 13.51171875 5.9453125 C13.12606964 3.60480784 13.12606964 3.60480784 10 2 C8.34450469 1.61500109 6.6777567 1.27206865 5 1 C4.67 2.98 4.34 4.96 4 7 C3.01 7 2.02 7 1 7 C1.33 5.02 1.66 3.04 2 1 C1.34 0.67 0.68 0.34 0 0 Z " transform="translate(345,199)" style="fill: #353535;"/><path d="M0 0 C0.33 0.99 0.66 1.98 1 3 C2.32 3 3.64 3 5 3 C5 6.96 5 10.92 5 15 C4.01 15 3.02 15 2 15 C1.67 11.7 1.34 8.4 1 5 C0.01 5.495 0.01 5.495 -1 6 C-0.67 4.02 -0.34 2.04 0 0 Z " transform="translate(99,61)" style="fill: #7B7B7B;"/><path d="M0 0 C1.08667969 0.01804688 2.17335937 0.03609375 3.29296875 0.0546875 C4.54013672 0.08949219 4.54013672 0.08949219 5.8125 0.125 C5.8125 0.785 5.8125 1.445 5.8125 2.125 C1.3575 2.62 1.3575 2.62 -3.1875 3.125 C-1.8675 4.445 -0.5475 5.765 0.8125 7.125 C-3.18205527 6.51045304 -5.93216336 4.41853263 -9.1875 2.125 C-5.66070901 -0.22619399 -4.15870515 -0.08943452 0 0 Z " transform="translate(131.1875,212.875)" style="fill: #1E1E1E;"/><path d="M0 0 C0.66 0 1.32 0 2 0 C2 0.99 2 1.98 2 3 C2.66 3 3.32 3 4 3 C3.41196203 6.02419525 2.77321882 9.01758453 2 12 C1.34 12 0.68 12 0 12 C-1.49821059 8.62902617 -2 6.79557881 -2 3 C-1.34 3 -0.68 3 0 3 C0 2.01 0 1.02 0 0 Z " transform="translate(102,104)" style="fill: #1A1A1A;"/><path d="M0 0 C3.86933162 0.57323431 6.15222057 2.38953552 9 5 C9 5.66 9 6.32 9 7 C5.04 7 1.08 7 -3 7 C-3 6.34 -3 5.68 -3 5 C0.465 4.505 0.465 4.505 4 4 C2.68 2.68 1.36 1.36 0 0 Z " transform="translate(327,208)" style="fill: #181818;"/><path d="M0 0 C1.00109515 3.31070838 1.10356134 6.30084769 1.0625 9.75 C1.05347656 10.73484375 1.04445313 11.7196875 1.03515625 12.734375 C1.02355469 13.48203125 1.01195312 14.2296875 1 15 C-0.65 15 -2.3 15 -4 15 C-3.52229477 13.06213915 -3.04278429 11.12472326 -2.5625 9.1875 C-2.29566406 8.10855469 -2.02882812 7.02960938 -1.75390625 5.91796875 C-1.23922588 3.9259157 -0.65062825 1.95188476 0 0 Z " transform="translate(50,170)" style="fill: #323232;"/><path d="M0 0 C0.99 0.33 1.98 0.66 3 1 C2.67 2.98 2.34 4.96 2 7 C4.97 7.495 4.97 7.495 8 8 C8 8.33 8 8.66 8 9 C4.37 9 0.74 9 -3 9 C-2.01 6.03 -1.02 3.06 0 0 Z " transform="translate(11,326)" style="fill: #404040;"/><path d="M0 0 C1.63030069 4.04979152 0.3199135 7.61740783 -0.8125 11.625 C-0.99103516 12.305625 -1.16957031 12.98625 -1.35351562 13.6875 C-2.73512968 18.73512968 -2.73512968 18.73512968 -5 21 C-4.5003731 13.50559651 -2.56235522 7.04349737 0 0 Z " transform="translate(88,98)" style="fill: #212121;"/><path d="M0 0 C2.99999941 2.63076871 4.72382055 5.74179832 6.6875 9.1875 C7.31011719 10.27417969 7.93273437 11.36085938 8.57421875 12.48046875 C9.04472656 13.31191406 9.51523438 14.14335938 10 15 C9.34 15.66 8.68 16.32 8 17 C6.65546882 14.92317952 5.32444163 12.83957514 4 10.75 C3.6184375 10.16347656 3.236875 9.57695313 2.84375 8.97265625 C0.72252389 5.6014219 0 4.09419282 0 0 Z " transform="translate(124,76)" style="fill: #323232;"/><path d="M0 0 C4.14749379 4.5424932 5.86999199 10.52984787 6.1875 16.5625 C6.125625 17.366875 6.06375 18.17125 6 19 C3.29259338 16.29259338 2.8989446 13.7373234 1.875 10.0625 C1.52179688 8.81597656 1.16859375 7.56945312 0.8046875 6.28515625 C0 3 0 3 0 0 Z " transform="translate(258,257)" style="fill: #252525;"/><path d="M0 0 C1.32 0.33 2.64 0.66 4 1 C3.01 3.64 2.02 6.28 1 9 C1.66 9.33 2.32 9.66 3 10 C2.34 10 1.68 10 1 10 C0.34 11.65 -0.32 13.3 -1 15 C-1.33 15 -1.66 15 -2 15 C-2.19909954 10.71935998 -1.64965775 7.91793715 0 4 C0 2.68 0 1.36 0 0 Z " transform="translate(14,314)" style="fill: #111010;"/><path d="M0 0 C2.53605069 2.53605069 2.79250373 4.46876556 3.625 7.9375 C3.88539063 8.99839844 4.14578125 10.05929687 4.4140625 11.15234375 C5 14 5 14 5 17 C5.66 17 6.32 17 7 17 C7 17.66 7 18.32 7 19 C5.35 19 3.7 19 2 19 C2.02320313 18.38253906 2.04640625 17.76507813 2.0703125 17.12890625 C2.19833108 11.12117697 1.56840747 5.79750618 0 0 Z " transform="translate(269,293)" style="fill: #060606;"/><path d="M0 0 C1 4 1 4 -0.43359375 7.015625 C-1.42552734 8.61664063 -1.42552734 8.61664063 -2.4375 10.25 C-3.09621094 11.32765625 -3.75492187 12.4053125 -4.43359375 13.515625 C-4.95050781 14.33546875 -5.46742188 15.1553125 -6 16 C-6.66 15.01 -7.32 14.02 -8 13 C-5.36 8.71 -2.72 4.42 0 0 Z " transform="translate(298,272)" style="fill: #393939;"/><path d="M0 0 C1.63030069 4.04979152 0.3199135 7.61740783 -0.8125 11.625 C-0.99103516 12.305625 -1.16957031 12.98625 -1.35351562 13.6875 C-2.73512968 18.73512968 -2.73512968 18.73512968 -5 21 C-4.67021516 13.39845954 -2.87217429 7.02680781 0 0 Z " transform="translate(55,220)" style="fill: #232323;"/><path d="M0 0 C3.82990706 0.64743667 6.5283898 2.45311237 9.75 4.5625 C10.73484375 5.20316406 11.7196875 5.84382813 12.734375 6.50390625 C13.85585937 7.24447266 13.85585937 7.24447266 15 8 C14.01 9.485 14.01 9.485 13 11 C13 10.34 13 9.68 13 9 C12.34 8.79375 11.68 8.5875 11 8.375 C6.90698622 6.49903535 3.42505088 3.91511774 0 1 C0 0.67 0 0.34 0 0 Z " transform="translate(228,282)" style="fill: #2E2E2E;"/><path d="M0 0 C3.74123976 4.2954975 6.34151874 8.99900452 9 14 C8.34 14.66 7.68 15.32 7 16 C5.82268014 14.0898586 4.65848895 12.17162056 3.5 10.25 C2.8503125 9.18265625 2.200625 8.1153125 1.53125 7.015625 C0 4 0 4 0 0 Z " transform="translate(224,231)" style="fill: #383838;"/><path d="M0 0 C2.00753698 1.09040327 4.00588751 2.19773572 6 3.3125 C7.11375 3.92738281 8.2275 4.54226562 9.375 5.17578125 C10.24125 5.77777344 11.1075 6.37976563 12 7 C12 7.99 12 8.98 12 10 C10.20353564 9.07172661 8.41296443 8.13204162 6.625 7.1875 C5.12839844 6.40439453 5.12839844 6.40439453 3.6015625 5.60546875 C1 4 1 4 -1 1 C-0.67 0.67 -0.34 0.34 0 0 Z " transform="translate(132,219)" style="fill: #353535;"/><path d="M0 0 C4.95 0 9.9 0 15 0 C14.67 1.65 14.34 3.3 14 5 C13.67 4.01 13.34 3.02 13 2 C11.95199219 2.01740234 11.95199219 2.01740234 10.8828125 2.03515625 C9.97273438 2.04417969 9.06265625 2.05320313 8.125 2.0625 C6.76761719 2.07990234 6.76761719 2.07990234 5.3828125 2.09765625 C3 2 3 2 1 1 C0.67 1.99 0.34 2.98 0 4 C0 2.68 0 1.36 0 0 Z " transform="translate(51,164)" style="fill: #606060;"/><path d="M0 0 C1.55246815 4.65740446 -0.19525684 8.55363681 -2 13 C-4.1875 15.625 -4.1875 15.625 -6 17 C-4.9318153 11.88634986 -3.76892524 6.92772031 -2 2 C-1.34 2 -0.68 2 0 2 C0 1.34 0 0.68 0 0 Z " transform="translate(92,86)" style="fill: #424242;"/><path d="M0 0 C0.33 0.99 0.66 1.98 1 3 C-0.36328125 5.6640625 -0.36328125 5.6640625 -2.3125 8.625 C-2.94800781 9.60726563 -3.58351563 10.58953125 -4.23828125 11.6015625 C-6 14 -6 14 -8 15 C-7.4520917 10.7170548 -5.97567196 8.14864359 -3.4375 4.6875 C-2.79683594 3.80449219 -2.15617187 2.92148437 -1.49609375 2.01171875 C-0.75552734 1.01591797 -0.75552734 1.01591797 0 0 Z " transform="translate(290,286)" style="fill: #252525;"/><path d="M0 0 C2.475 0.99 2.475 0.99 5 2 C5 3.65 5 5.3 5 7 C4.34 6.67 3.68 6.34 3 6 C3 5.34 3 4.68 3 4 C2.34 4 1.68 4 1 4 C1 5.65 1 7.3 1 9 C0.34 9 -0.32 9 -1 9 C-0.67 6.03 -0.34 3.06 0 0 Z " transform="translate(102,44)" style="fill: #0D0D0D;"/><path d="M0 0 C0.66 0 1.32 0 2 0 C1.42176904 4.06225548 0.10882263 6.84762346 -2.0625 10.3125 C-2.61035156 11.19550781 -3.15820312 12.07851562 -3.72265625 12.98828125 C-4.14417969 13.65214844 -4.56570313 14.31601563 -5 15 C-5.66 14.01 -6.32 13.02 -7 12 C-6.05016642 10.49460339 -5.08988109 8.99579653 -4.125 7.5 C-3.32449219 6.24703125 -3.32449219 6.24703125 -2.5078125 4.96875 C-2.01023437 4.3190625 -1.51265625 3.669375 -1 3 C-0.34 3 0.32 3 1 3 C0.67 2.01 0.34 1.02 0 0 Z " transform="translate(335,212)" style="fill: #404040;"/><path d="M0 0 C0.66 0 1.32 0 2 0 C1.52650085 4.10365934 1.03948552 7.4009079 -1 11 C-1.67966676 12.66140763 -2.34938905 14.32700041 -3 16 C-4.49828872 12.11764181 -3.43110582 9.56550712 -2.0625 5.75 C-1.68222656 4.67234375 -1.30195312 3.5946875 -0.91015625 2.484375 C-0.45962891 1.25460938 -0.45962891 1.25460938 0 0 Z " transform="translate(57,210)" style="fill: #3E3E3E;"/><path d="M0 0 C3.99012371 0.55989303 6.5255052 1.75669768 9.8125 4.0625 C10.99779297 4.88427734 10.99779297 4.88427734 12.20703125 5.72265625 C12.79871094 6.14417969 13.39039063 6.56570312 14 7 C13.67 7.66 13.34 8.32 13 9 C9.91220974 7.53400783 7.09532795 5.82973607 4.25 3.9375 C3.45078125 3.41027344 2.6515625 2.88304687 1.828125 2.33984375 C0.92320312 1.67662109 0.92320312 1.67662109 0 1 C0 0.67 0 0.34 0 0 Z " transform="translate(293,184)" style="fill: #323232;"/><path d="M0 0 C1.65 0 3.3 0 5 0 C4.57742724 1.4835001 4.13643678 2.96176424 3.6875 4.4375 C3.44386719 5.26121094 3.20023438 6.08492187 2.94921875 6.93359375 C2.63597656 7.61550781 2.32273438 8.29742187 2 9 C1.01 9.33 0.02 9.66 -1 10 C-0.67 6.7 -0.34 3.4 0 0 Z " transform="translate(206,166)" style="fill: #1F1F1F;"/><path d="M0 0 C0.66 0.33 1.32 0.66 2 1 C1.67 4.3 1.34 7.6 1 11 C-0.65 11 -2.3 11 -4 11 C-2.68 7.37 -1.36 3.74 0 0 Z " transform="translate(113,108)" style="fill: #1A1A1A;"/><path d="M0 0 C3.99012371 0.55989303 6.5255052 1.75669768 9.8125 4.0625 C10.99779297 4.88427734 10.99779297 4.88427734 12.20703125 5.72265625 C12.79871094 6.14417969 13.39039063 6.56570312 14 7 C13.01 7.66 12.02 8.32 11 9 C9.16384919 7.69144447 7.33114211 6.37805538 5.5 5.0625 C4.4790625 4.33160156 3.458125 3.60070312 2.40625 2.84765625 C1.6121875 2.23792969 0.818125 1.62820312 0 1 C0 0.67 0 0.34 0 0 Z " transform="translate(172,96)" style="fill: #363636;"/><path d="M0 0 C3.99012371 0.55989303 6.5255052 1.75669768 9.8125 4.0625 C10.99779297 4.88427734 10.99779297 4.88427734 12.20703125 5.72265625 C12.79871094 6.14417969 13.39039062 6.56570312 14 7 C13.34 7.66 12.68 8.32 12 9 C9.997193 7.69161864 7.99773901 6.37857806 6 5.0625 C5.42765625 4.68931641 4.8553125 4.31613281 4.265625 3.93164062 C2.82614271 2.98055411 1.41085511 1.99305724 0 1 C0 0.67 0 0.34 0 0 Z " transform="translate(72,182)" style="fill: #222222;"/><path d="M0 0 C0.66 1.32 1.32 2.64 2 4 C2.99 4 3.98 4 5 4 C6.6875 5.5 6.6875 5.5 8 7 C5 8 5 8 2.8125 7.0625 C2.214375 6.711875 1.61625 6.36125 1 6 C1 6.66 1 7.32 1 8 C0.34 8 -0.32 8 -1 8 C-1.33 8.66 -1.66 9.32 -2 10 C-1.34 6.7 -0.68 3.4 0 0 Z " transform="translate(66,175)" style="fill: #454545;"/><path d="M0 0 C3.43950364 0.61198376 5.51564485 1.92058847 8.25 4.0625 C8.95640625 4.61035156 9.6628125 5.15820312 10.390625 5.72265625 C11.18726563 6.35494141 11.18726563 6.35494141 12 7 C11.34 7.66 10.68 8.32 10 9 C8.3278148 7.88321917 6.66237197 6.75633648 5 5.625 C3.6078125 4.68527344 3.6078125 4.68527344 2.1875 3.7265625 C1.465625 3.15679687 0.74375 2.58703125 0 2 C0 1.34 0 0.68 0 0 Z " transform="translate(242,146)" style="fill: #2F2F2F;"/><path d="M0 0 C4.29 0 8.58 0 13 0 C12.67 1.32 12.34 2.64 12 4 C11.67 3.67 11.34 3.34 11 3 C9.32115762 2.6068352 7.63149955 2.25914548 5.9375 1.9375 C5.01839844 1.76089844 4.09929687 1.58429688 3.15234375 1.40234375 C2.44207031 1.26957031 1.73179687 1.13679688 1 1 C0.67 1.99 0.34 2.98 0 4 C0 2.68 0 1.36 0 0 Z " transform="translate(225,101)" style="fill: #595859;"/><path d="M0 0 C0.98235258 3.18341324 1.02156168 5.75678515 0.6875 9.0625 C0.60886719 9.91972656 0.53023437 10.77695312 0.44921875 11.66015625 C0 14 0 14 -2 17 C-3.18594057 12.76674194 -2.71869389 9.89604576 -1.5625 5.6875 C-1.27503906 4.61886719 -0.98757812 3.55023438 -0.69140625 2.44921875 C-0.46324219 1.64097656 -0.23507813 0.83273437 0 0 Z " transform="translate(42,263)" style="fill: #4D4D4D;"/><path d="M0 0 C1.65 0.33 3.3 0.66 5 1 C4.67 2.65 4.34 4.3 4 6 C2.0625 5.6875 2.0625 5.6875 0 5 C-1 2 -1 2 0 0 Z " transform="translate(186,174)" style="fill: #121212;"/><path d="M0 0 C0 0.66 0 1.32 0 2 C-3.96 2.99 -7.92 3.98 -12 5 C-11 2 -11 2 -8.8125 0.8125 C-5.74609689 -0.07334979 -3.17561845 -0.14770318 0 0 Z " transform="translate(211,132)" style="fill: #474747;"/><path d="M0 0 C5.08938811 1.59043379 8.87456643 4.7446951 13 8 C12.01 8.33 11.02 8.66 10 9 C7.7734375 7.63671875 7.7734375 7.63671875 5.375 5.6875 C4.57835937 5.05199219 3.78171875 4.41648437 2.9609375 3.76171875 C1 2 1 2 0 0 Z " transform="translate(161,87)" style="fill: #262626;"/><path d="M0 0 C3.7910119 1.44950455 7.3874638 3.15172566 11 5 C11 5.66 11 6.32 11 7 C6.4923533 6.46968862 3.58045212 4.74778884 0 2 C0 1.34 0 0.68 0 0 Z " transform="translate(120,223)" style="fill: #3C3C3C;"/><path d="M0 0 C0 0.66 0 1.32 0 2 C-1.24663331 2.50833591 -2.49749387 3.00631145 -3.75 3.5 C-4.44609375 3.7784375 -5.1421875 4.056875 -5.859375 4.34375 C-8 5 -8 5 -12 5 C-12 4.34 -12 3.68 -12 3 C-10.75336669 2.49166409 -9.50250613 1.99368855 -8.25 1.5 C-7.55390625 1.2215625 -6.8578125 0.943125 -6.140625 0.65625 C-4 0 -4 0 0 0 Z " transform="translate(154,150)" style="fill: #383838;"/><path d="M0 0 C1.95468059 2.93202088 2.55258673 4.68004563 3.25 8.0625 C3.44078125 8.94035156 3.6315625 9.81820312 3.828125 10.72265625 C3.88484375 11.47417969 3.9415625 12.22570312 4 13 C3.34 13.66 2.68 14.32 2 15 C1.46906676 13.06524329 0.95057683 11.12706845 0.4375 9.1875 C0.14746094 8.10855469 -0.14257812 7.02960938 -0.44140625 5.91796875 C-1 3 -1 3 0 0 Z " transform="translate(223,138)" style="fill: #414141;"/><path d="M0 0 C-1.28264727 2.56529454 -2.22772349 2.66499863 -4.875 3.625 C-5.57367188 3.88539063 -6.27234375 4.14578125 -6.9921875 4.4140625 C-9 5 -9 5 -12 5 C-11.67 4.01 -11.34 3.02 -11 2 C-7.24092359 0.37676246 -4.07913787 -0.23994929 0 0 Z " transform="translate(192,138)" style="fill: #3D3D3D;"/><path d="M0 0 C0.66 0 1.32 0 2 0 C1.34 1.65 0.68 3.3 0 5 C-4.95 5 -9.9 5 -15 5 C-13 3 -13 3 -10.72265625 2.83984375 C-9.40587891 2.88818359 -9.40587891 2.88818359 -8.0625 2.9375 C-4.91186403 3.04422257 -3.02998649 3.0099955 0 2 C0 1.34 0 0.68 0 0 Z " transform="translate(234,117)" style="fill: #333333;"/><path d="M0 0 C5.02692063 0.45699278 8.14896261 2.99241748 12 6 C11.34 6.66 10.68 7.32 10 8 C8.33055479 6.85821872 6.6645052 5.71147095 5 4.5625 C4.071875 3.92441406 3.14375 3.28632812 2.1875 2.62890625 C1.465625 2.09136719 0.74375 1.55382812 0 1 C0 0.67 0 0.34 0 0 Z " transform="translate(150,80)" style="fill: #373737;"/><path d="M0 0 C5.02692063 0.45699278 8.14896261 2.99241748 12 6 C11.34 6.66 10.68 7.32 10 8 C8.33055479 6.85821872 6.6645052 5.71147095 5 4.5625 C4.071875 3.92441406 3.14375 3.28632812 2.1875 2.62890625 C1.465625 2.09136719 0.74375 1.55382812 0 1 C0 0.67 0 0.34 0 0 Z " transform="translate(128,64)" style="fill: #363636;"/><path d="M0 0 C1.50433594 0.01353516 1.50433594 0.01353516 3.0390625 0.02734375 C3.80992187 0.03894531 4.58078125 0.05054688 5.375 0.0625 C5.045 2.3725 4.715 4.6825 4.375 7.0625 C2.375 4.0625 2.375 4.0625 2.375 2.0625 C-0.96752724 1.98822162 -3.4285914 1.99703047 -6.625 3.0625 C-6.955 2.4025 -7.285 1.7425 -7.625 1.0625 C-4.98041621 -0.25979189 -2.94738699 -0.03427194 0 0 Z " transform="translate(286.625,313.9375)" style="fill: #4B4B4B;"/><path d="M0 0 C5.08938811 1.59043379 8.87456643 4.7446951 13 8 C12.01 8.33 11.02 8.66 10 9 C7.51953125 7.3828125 7.51953125 7.3828125 4.8125 5.125 C3.91144531 4.38507813 3.01039063 3.64515625 2.08203125 2.8828125 C1.39496094 2.26148438 0.70789063 1.64015625 0 1 C0 0.67 0 0.34 0 0 Z " transform="translate(282,175)" style="fill: #1A1A1A;"/><path d="M0 0 C3.43950364 0.61198376 5.51564485 1.92058847 8.25 4.0625 C8.95640625 4.61035156 9.6628125 5.15820312 10.390625 5.72265625 C11.18726563 6.35494141 11.18726563 6.35494141 12 7 C11.01 7.33 10.02 7.66 9 8 C6.73828125 6.6015625 6.73828125 6.6015625 4.3125 4.625 C3.50425781 3.97789063 2.69601563 3.33078125 1.86328125 2.6640625 C1.24839844 2.11492187 0.63351563 1.56578125 0 1 C0 0.67 0 0.34 0 0 Z " transform="translate(184,104)" style="fill: #282828;"/><path d="M0 0 C2.64 0 5.28 0 8 0 C6.38731308 2.71224618 4.75098126 5.37352812 3 8 C3 6.68 3 5.36 3 4 C2.34 4 1.68 4 1 4 C0.67 2.68 0.34 1.36 0 0 Z " transform="translate(126,98)" style="fill: #464646;"/><path d="M0 0 C0.66 0 1.32 0 2 0 C0.63312778 3.98671063 -1.15195093 6.88494633 -4 10 C-4.66 10 -5.32 10 -6 10 C-4.63312778 6.01328937 -2.84804907 3.11505367 0 0 Z " transform="translate(43,293)" style="fill: #3A3A3A;"/><path d="M0 0 C3.21852831 0.63065757 5.50801069 1.78020695 8.25 3.5625 C8.95640625 4.01753906 9.6628125 4.47257812 10.390625 4.94140625 C11.18726563 5.46541016 11.18726563 5.46541016 12 6 C11.34 6.66 10.68 7.32 10 8 C8.33055479 6.85821872 6.6645052 5.71147095 5 4.5625 C4.071875 3.92441406 3.14375 3.28632813 2.1875 2.62890625 C1.465625 2.09136719 0.74375 1.55382812 0 1 C0 0.67 0 0.34 0 0 Z " transform="translate(211,271)" style="fill: #272727;"/><path d="M0 0 C4.51478398 0.53115106 7.34666857 2.36620292 11 5 C9.4375 5.75 9.4375 5.75 7 6 C4.49713591 4.86915563 2.32992278 3.47860484 0 2 C0 1.34 0 0.68 0 0 Z " transform="translate(189,263)" style="fill: #373737;"/><path d="M0 0 C0.33 0 0.66 0 1 0 C0.22095672 10.55808656 0.22095672 10.55808656 -2 15 C-3.11446742 11.65659775 -2.85175268 10.31739772 -2.125 6.9375 C-1.94195312 6.05964844 -1.75890625 5.18179687 -1.5703125 4.27734375 C-1 2 -1 2 0 0 Z " transform="translate(45,255)" style="fill: #242424;"/><path d="M0 0 C4.19360449 0.67097672 7.40334352 2.8558394 11 5 C11 5.66 11 6.32 11 7 C6.96678237 5.78065514 3.45730521 4.44045073 0 2 C0 1.34 0 0.68 0 0 Z " transform="translate(137,233)" style="fill: #353535;"/><path d="M0 0 C0.99 0.33 1.98 0.66 3 1 C3 3.31 3 5.62 3 8 C2.01 8.33 1.02 8.66 0 9 C0 6.03 0 3.06 0 0 Z " transform="translate(360,203)" style="fill: #111111;"/><path d="M0 0 C0.99 0 1.98 0 3 0 C2.88648483 1.81325551 2.75887039 3.62563357 2.625 5.4375 C2.55539063 6.44683594 2.48578125 7.45617187 2.4140625 8.49609375 C2.27742188 9.32238281 2.14078125 10.14867187 2 11 C1.01 11.495 1.01 11.495 0 12 C0 8.04 0 4.08 0 0 Z " transform="translate(102,202)" style="fill: #1E1E1E;"/><path d="M0 0 C0.66 0.66 1.32 1.32 2 2 C3.175625 2.165 4.35125 2.33 5.5625 2.5 C7.2640625 2.7475 7.2640625 2.7475 9 3 C9.33 3.66 9.66 4.32 10 5 C8.56344146 5.08131463 7.1255517 5.13933559 5.6875 5.1875 C4.48673828 5.23970703 4.48673828 5.23970703 3.26171875 5.29296875 C0.52148416 4.93801608 -0.29171079 4.10633718 -2 2 C-1.34 2 -0.68 2 0 2 C0 1.34 0 0.68 0 0 Z " transform="translate(196,172)" style="fill: #5F5F5F;"/><path d="M0 0 C4.67105792 1.55701931 8.08705685 4.08447373 12 7 C11.34 7.66 10.68 8.32 10 9 C8.33043913 7.69118353 6.66441696 6.37785174 5 5.0625 C4.071875 4.33160156 3.14375 3.60070312 2.1875 2.84765625 C1.465625 2.23792969 0.74375 1.62820312 0 1 C0 0.67 0 0.34 0 0 Z " transform="translate(253,154)" style="fill: #222222;"/><path d="M0 0 C2 1 2 1 2.8515625 3.50390625 C3.10679687 4.51324219 3.36203125 5.52257812 3.625 6.5625 C3.88539063 7.57441406 4.14578125 8.58632812 4.4140625 9.62890625 C4.60742188 10.41136719 4.80078125 11.19382813 5 12 C4.01 11.67 3.02 11.34 2 11 C0.37676246 7.24092359 -0.23994929 4.07913787 0 0 Z " transform="translate(226,151)" style="fill: #323232;"/><path d="M0 0 C1.98 0 3.96 0 6 0 C5 2 5 2 2.71484375 2.8515625 C1.79832031 3.10679687 0.88179687 3.36203125 -0.0625 3.625 C-1.44115234 4.01558594 -1.44115234 4.01558594 -2.84765625 4.4140625 C-3.55792969 4.60742188 -4.26820313 4.80078125 -5 5 C-5.33 4.34 -5.66 3.68 -6 3 C-4.02 2.67 -2.04 2.34 0 2 C0 1.34 0 0.68 0 0 Z " transform="translate(167,144)" style="fill: #252525;"/><path d="M0 0 C2.94751667 2.74423966 5.22773678 5.36219655 7 9 C6.67 9.99 6.34 10.98 6 12 C4.99157547 10.56839732 3.99352109 9.12948547 3 7.6875 C2.1646875 6.48673828 2.1646875 6.48673828 1.3125 5.26171875 C0 3 0 3 0 0 Z " transform="translate(117,66)" style="fill: #272727;"/><path d="M0 0 C0.66 0.66 1.32 1.32 2 2 C-0.31 4.97 -2.62 7.94 -5 11 C-5.66 10.34 -6.32 9.68 -7 9 C-4.69 6.03 -2.38 3.06 0 0 Z " transform="translate(55,277)" style="fill: #343434;"/><path d="M0 0 C0.66 0 1.32 0 2 0 C0.34832443 3.5786304 -1.78286492 6.74820188 -4 10 C-4.66 9.34 -5.32 8.68 -6 8 C-5.04956626 6.66102417 -4.08940853 5.32894573 -3.125 4 C-2.59132812 3.2575 -2.05765625 2.515 -1.5078125 1.75 C-1.01023437 1.1725 -0.51265625 0.595 0 0 Z " transform="translate(66,262)" style="fill: #323232;"/><path d="M0 0 C3.5875213 1.33250791 6.8364623 2.830717 10 5 C10 5.66 10 6.32 10 7 C6.12697862 5.85569823 2.99736561 4.76679902 0 2 C0 1.34 0 0.68 0 0 Z " transform="translate(155,243)" style="fill: #333333;"/><path d="M0 0 C3.21852831 0.63065757 5.50801069 1.78020695 8.25 3.5625 C8.95640625 4.01753906 9.6628125 4.47257813 10.390625 4.94140625 C11.18726563 5.46541016 11.18726563 5.46541016 12 6 C11.01 6.33 10.02 6.66 9 7 C6.73828125 5.8203125 6.73828125 5.8203125 4.3125 4.125 C3.50425781 3.57070312 2.69601563 3.01640625 1.86328125 2.4453125 C1.24839844 1.96835938 0.63351563 1.49140625 0 1 C0 0.67 0 0.34 0 0 Z " transform="translate(161,239)" style="fill: #252525;"/><path d="M0 0 C0.66 0 1.32 0 2 0 C0.34643078 3.58273331 -1.67980703 6.80973467 -4 10 C-4.66 10 -5.32 10 -6 10 C-4.63312778 6.01328937 -2.84804907 3.11505367 0 0 Z " transform="translate(90,230)" style="fill: #2F2F2F;"/><path d="M0 0 C1.32 0.33 2.64 0.66 4 1 C3.21625 1.5775 2.4325 2.155 1.625 2.75 C-0.80047244 4.82897637 -1.85694417 6.09040333 -3 9 C-3.66 9 -4.32 9 -5 9 C-4.42647107 5.12867972 -2.51295648 2.91827204 0 0 Z " transform="translate(101,215)" style="fill: #303030;"/><path d="M0 0 C0.66 0 1.32 0 2 0 C1.52060632 4.71403788 1.03165952 8.66579301 -1 13 C-2.12758089 9.61725734 -1.81750262 8.23221777 -1.0625 4.8125 C-0.86785156 3.91144531 -0.67320313 3.01039063 -0.47265625 2.08203125 C-0.31667969 1.39496094 -0.16070312 0.70789063 0 0 Z " transform="translate(60,197)" style="fill: #2F2F2F;"/><path d="M0 0 C4.04420651 1.77945087 7.46078487 4.39529673 11 7 C10.01 7.33 9.02 7.66 8 8 C5.95703125 6.85546875 5.95703125 6.85546875 3.8125 5.1875 C3.09707031 4.64480469 2.38164062 4.10210937 1.64453125 3.54296875 C1.10183594 3.03378906 0.55914062 2.52460938 0 2 C0 1.34 0 0.68 0 0 Z " transform="translate(306,192)" style="fill: #222222;"/><path d="M0 0 C0 0.66 0 1.32 0 2 C-4.95 3.485 -4.95 3.485 -10 5 C-10.33 4.34 -10.66 3.68 -11 3 C-4.5 0 -4.5 0 0 0 Z " transform="translate(135,156)" style="fill: #2C2C2C;"/><path d="M0 0 C3.96 0 7.92 0 12 0 C11.67 1.98 11.34 3.96 11 6 C10.34 6 9.68 6 9 6 C9 4.68 9 3.36 9 2 C6.03 1.67 3.06 1.34 0 1 C0 0.67 0 0.34 0 0 Z " transform="translate(201,155)" style="fill: #515151;"/><path d="M0 0 C2.94751667 2.74423966 5.22773678 5.36219655 7 9 C6.67 9.99 6.34 10.98 6 12 C4.99157547 10.56839732 3.99352109 9.12948547 3 7.6875 C2.1646875 6.48673828 2.1646875 6.48673828 1.3125 5.26171875 C0 3 0 3 0 0 Z " transform="translate(144,108)" style="fill: #252525;"/><path d="M0 0 C3.35595828 0.59927826 5.37801226 1.84622436 8 4 C7.67 4.33 7.34 4.66 7 5 C7.99 5.99 8.98 6.98 10 8 C6.58638198 6.8006207 4.43511004 5.66702528 2 3 C1.34 2.67 0.68 2.34 0 2 C0 1.34 0 0.68 0 0 Z " transform="translate(222,278)" style="fill: #4F4F4F;"/><path d="M0 0 C4.51478398 0.53115106 7.34666857 2.36620292 11 5 C8 6 8 6 5.95703125 5.22265625 C5.24933594 4.83980469 4.54164063 4.45695312 3.8125 4.0625 C3.09707031 3.68222656 2.38164062 3.30195313 1.64453125 2.91015625 C1.10183594 2.60980469 0.55914062 2.30945313 0 2 C0 1.34 0 0.68 0 0 Z " transform="translate(206,273)" style="fill: #333333;"/><path d="M0 0 C4.99911924 0.47610659 7.97832683 2.03162219 12 5 C9.44345185 5.95582656 8.39658231 6.17802782 5.859375 5.0390625 C5.16328125 4.57242188 4.4671875 4.10578125 3.75 3.625 C3.04359375 3.16351563 2.3371875 2.70203125 1.609375 2.2265625 C1.07828125 1.82179687 0.5471875 1.41703125 0 1 C0 0.67 0 0.34 0 0 Z " transform="translate(93,196)" style="fill: #2C2C2C;"/><path d="M0 0 C-0.33 0.99 -0.66 1.98 -1 3 C-4.3 3.66 -7.6 4.32 -11 5 C-10.67 4.01 -10.34 3.02 -10 2 C-8.22265625 1.26953125 -8.22265625 1.26953125 -6.0625 0.8125 C-4.99708984 0.57466797 -4.99708984 0.57466797 -3.91015625 0.33203125 C-2 0 -2 0 0 0 Z " transform="translate(97,168)" style="fill: #2D2D2D;"/><path d="M0 0 C0.5775 0.2475 1.155 0.495 1.75 0.75 C0.96625 1.36875 0.1825 1.9875 -0.625 2.625 C-3.21837647 4.64858661 -3.21837647 4.64858661 -5.25 6.75 C-6.24 7.08 -7.23 7.41 -8.25 7.75 C-6.64613593 4.0076505 -4.56199942 -0.50688882 0 0 Z " transform="translate(201.25,156.25)" style="fill: #2A2A2A;"/><path d="M0 0 C2.97 1.65 5.94 3.3 9 5 C8.34 5.66 7.68 6.32 7 7 C4.03 5.35 1.06 3.7 -2 2 C-1.34 1.34 -0.68 0.68 0 0 Z " transform="translate(209,271)" style="fill: #C8C8C8;"/><path d="M0 0 C4.43090471 1.20842856 6.98112756 2.51668565 10 6 C6.05879291 5.43697042 3.2491277 4.3208055 0 2 C0 1.34 0 0.68 0 0 Z " transform="translate(172,253)" style="fill: #2D2D2D;"/><path d="M0 0 C0.66 0 1.32 0 2 0 C0.34832443 3.5786304 -1.78286492 6.74820188 -4 10 C-4.66 9.34 -5.32 8.68 -6 8 C-5.04956626 6.66102417 -4.08940853 5.32894573 -3.125 4 C-2.59132813 3.2575 -2.05765625 2.515 -1.5078125 1.75 C-1.01023437 1.1725 -0.51265625 0.595 0 0 Z " transform="translate(78,246)" style="fill: #262626;"/><path d="M0 0 C0.66 0 1.32 0 2 0 C1.53199289 4.05606165 1.12046792 7.46588679 -1 11 C-2.60080151 6.99799622 -1.29279692 3.95443764 0 0 Z " transform="translate(100,21)" style="fill: #0E0E0E;"/><path d="M0 0 C2.56616632 3.84924948 2.55097676 6.4349304 3 11 C0.9375 8.875 0.9375 8.875 -1 6 C-0.75 2.6875 -0.75 2.6875 0 0 Z " transform="translate(268,293)" style="fill: #ACACAC;"/><path d="M0 0 C0.66 0 1.32 0 2 0 C1.88590407 1.45922693 1.75834456 2.91740598 1.625 4.375 C1.55539063 5.18710937 1.48578125 5.99921875 1.4140625 6.8359375 C1 9 1 9 -1 11 C-1.14285714 3.57142857 -1.14285714 3.57142857 0 0 Z " transform="translate(38,278)" style="fill: #323232;"/><path d="M0 0 C2.61885488 2.36944013 4.41866551 4.83733102 6 8 C5.67 8.99 5.34 9.98 5 11 C3.02 7.7 1.04 4.4 -1 1 C-0.67 0.67 -0.34 0.34 0 0 Z " transform="translate(190,179)" style="fill: #242424;"/><path d="M0 0 C0.93423645 3.01031744 1.04449911 3.86650268 0 7 C-0.66 7 -1.32 7 -2 7 C-2 6.01 -2 5.02 -2 4 C-3.32 4 -4.64 4 -6 4 C-5.67 3.01 -5.34 2.02 -5 1 C-5 1.66 -5 2.32 -5 3 C-3.35 2.01 -1.7 1.02 0 0 Z " transform="translate(232,108)" style="fill: #5D5D5D;"/><path d="M0 0 C0.66 0 1.32 0 2 0 C1.25 4.75 1.25 4.75 -1 7 C-3.125 6.625 -3.125 6.625 -5 6 C-4.360625 5.566875 -3.72125 5.13375 -3.0625 4.6875 C-0.73253997 3.08760823 -0.73253997 3.08760823 0 0 Z " transform="translate(22,327)" style="fill: #141414;"/><path d="M0 0 C1.98362069 2.91708924 1.9876191 4.12380904 1.625 7.75 C1.41875 8.8225 1.2125 9.895 1 11 C-1.78637633 6.8204355 -0.79562512 4.85331323 0 0 Z " transform="translate(36,285)" style="fill: #6D6D6D;"/><path d="M0 0 C2.29633824 3.44450737 2.54016485 5.93812283 3 10 C2.34 10 1.68 10 1 10 C-1.125 3.375 -1.125 3.375 0 0 Z " transform="translate(240,194)" style="fill: #444444;"/><path d="M0 0 C0 0.66 0 1.32 0 2 C-5.445 3.485 -5.445 3.485 -11 5 C-11 4.34 -11 3.68 -11 3 C-9.73160474 2.49384702 -8.46016898 1.99530901 -7.1875 1.5 C-6.47980469 1.2215625 -5.77210937 0.943125 -5.04296875 0.65625 C-3 0 -3 0 0 0 Z " transform="translate(116,162)" style="fill: #212121;"/><path d="M0 0 C0.66 0.33 1.32 0.66 2 1 C0.35 3.64 -1.3 6.28 -3 9 C-3.33 8.01 -3.66 7.02 -4 6 C-2.0625 2.8125 -2.0625 2.8125 0 0 Z " transform="translate(319,239)" style="fill: #262626;"/><path d="M0 0 C0 0.66 0 1.32 0 2 C-4.25566547 3.16063604 -7.6835078 2.76173392 -12 2 C-12 1.67 -12 1.34 -12 1 C-7.93631321 0.22596442 -4.13574827 -0.0984702 0 0 Z " transform="translate(217,213)" style="fill: #1A1A1A;"/><path d="M0 0 C4.875 4.75 4.875 4.75 6 7 C5.34 7 4.68 7 4 7 C3.67 7.66 3.34 8.32 3 9 C0 3.375 0 3.375 0 0 Z " transform="translate(182,167)" style="fill: #2E2E2E;"/><path d="M0 0 C0.33 2.97 0.66 5.94 1 9 C0.01 8.67 -0.98 8.34 -2 8 C-2.04241723 5.66705225 -2.04092937 3.33297433 -2 1 C-1 0 -1 0 0 0 Z " transform="translate(195,165)" style="fill: #060606;"/><path d="M0 0 C0.66 0 1.32 0 2 0 C2.125 6.75 2.125 6.75 1 9 C0.34 9 -0.32 9 -1 9 C-0.67 6.03 -0.34 3.06 0 0 Z " transform="translate(127,102)" style="fill: #0F100F;"/><path d="M0 0 C5.53846154 0.61538462 5.53846154 0.61538462 7.875 2.5625 C8.431875 3.2740625 8.431875 3.2740625 9 4 C8.01 4.495 8.01 4.495 7 5 C4.5249829 3.88568235 2.32116581 2.41849022 0 1 C0 0.67 0 0.34 0 0 Z " transform="translate(105,216)" style="fill: #393939;"/><path d="M0 0 C3.96 1.98 3.96 1.98 8 4 C7.01 4.66 6.02 5.32 5 6 C3.02 4.68 1.04 3.36 -1 2 C-0.67 1.34 -0.34 0.68 0 0 Z " transform="translate(116,209)" style="fill: #343434;"/><path d="M0 0 C0.33 0 0.66 0 1 0 C1 1.98 1 3.96 1 6 C-0.65 6 -2.3 6 -4 6 C-2.69593116 3.98079663 -1.36176581 1.98075027 0 0 Z " transform="translate(87,203)" style="fill: #E0E0E0;"/><path d="M0 0 C3.82097239 0.53069061 6.06171403 1.49701566 9 4 C8.01 4.33 7.02 4.66 6 5 C2.8125 3.125 2.8125 3.125 0 1 C0 0.67 0 0.34 0 0 Z " transform="translate(171,246)" style="fill: #3A3A3A;"/><path d="M0 0 C2.34058637 2.12780579 3.70700306 4.11562221 5 7 C4.34 7.66 3.68 8.32 3 9 C0.70620251 5.55930376 0 4.27709699 0 0 Z " transform="translate(196,188)" style="fill: #3A3A3A;"/><path d="M0 0 C2.34058637 2.12780579 3.70700306 4.11562221 5 7 C4.34 7.66 3.68 8.32 3 9 C0.70620251 5.55930376 0 4.27709699 0 0 Z " transform="translate(151,118)" style="fill: #3A3A3A;"/><path d="M0 0 C2.34058637 2.12780579 3.70700306 4.11562221 5 7 C4.34 7.66 3.68 8.32 3 9 C0.70620251 5.55930376 0 4.27709699 0 0 Z " transform="translate(124,76)" style="fill: #3A3A3A;"/></svg>